<?xml version="1.0" encoding="UTF-8"?>
<!DOCTYPE svg PUBLIC "-//W3C//DTD SVG 1.1//EN"
    "http://www.w3.org/Graphics/SVG/1.1/DTD/svg11.dtd"><svg xmlns="http://www.w3.org/2000/svg" viewBox="0.0 0.0 800.0 600.0" height="600.0000" font-size="1" stroke-opacity="1" width="800.0000" xmlns:xlink="http://www.w3.org/1999/xlink" stroke="rgb(0,0,0)" version="1.1"><defs></defs><g stroke-linecap="butt" fill="rgb(255,255,255)" stroke-miterlimit="10.0" stroke-width="0.0" fill-opacity="1.0" stroke-opacity="0.0" stroke-linejoin="bevel" stroke="rgb(0,0,0)"><path d="M 0.0000,0.0000 v 600.0000 h 800.0000 v -600.0000 Z"/></g><g stroke-linecap="butt" fill="rgb(0,0,0)" stroke-dashoffset="0.0" stroke-dasharray="4.999999999999998,4.999999999999998" stroke-miterlimit="10.0" stroke-width="0.9999999999999997" fill-opacity="0.0" stroke-opacity="1.0" stroke-linejoin="miter" stroke="rgb(211,211,211)"><path d="M 29.8004,15.0000 v 535.0000 "/></g><g stroke-linecap="butt" fill="rgb(0,0,0)" stroke-dashoffset="0.0" stroke-dasharray="4.999999999999998,4.999999999999998" stroke-miterlimit="10.0" stroke-width="0.9999999999999997" fill-opacity="0.0" stroke-opacity="1.0" stroke-linejoin="miter" stroke="rgb(211,211,211)"><path d="M 219.3041,15.0000 v 535.0000 "/></g><g stroke-linecap="butt" fill="rgb(0,0,0)" stroke-dashoffset="0.0" stroke-dasharray="4.999999999999998,4.999999999999998" stroke-miterlimit="10.0" stroke-width="0.9999999999999997" fill-opacity="0.0" stroke-opacity="1.0" stroke-linejoin="miter" stroke="rgb(211,211,211)"><path d="M 408.8078,15.0000 v 535.0000 "/></g><g stroke-linecap="butt" fill="rgb(0,0,0)" stroke-dashoffset="0.0" stroke-dasharray="4.999999999999998,4.999999999999998" stroke-miterlimit="10.0" stroke-width="0.9999999999999997" fill-opacity="0.0" stroke-opacity="1.0" stroke-linejoin="miter" stroke="rgb(211,211,211)"><path d="M 598.3114,15.0000 v 535.0000 "/></g><g stroke-linecap="butt" fill="rgb(0,0,0)" stroke-dashoffset="0.0" stroke-dasharray="4.999999999999998,4.999999999999998" stroke-miterlimit="10.0" stroke-width="0.9999999999999997" fill-opacity="0.0" stroke-opacity="1.0" stroke-linejoin="miter" stroke="rgb(211,211,211)"><path d="M 787.8151,15.0000 v 535.0000 "/></g><g stroke-linecap="butt" fill="rgb(0,0,0)" stroke-dashoffset="0.0" stroke-dasharray="4.999999999999998,4.999999999999998" stroke-miterlimit="10.0" stroke-width="0.9999999999999997" fill-opacity="0.0" stroke-opacity="1.0" stroke-linejoin="miter" stroke="rgb(211,211,211)"><path d="M 29.8004,550.0000 h 758.0147 "/></g><g stroke-linecap="butt" fill="rgb(0,0,0)" stroke-dashoffset="0.0" stroke-dasharray="4.999999999999998,4.999999999999998" stroke-miterlimit="10.0" stroke-width="0.9999999999999997" fill-opacity="0.0" stroke-opacity="1.0" stroke-linejoin="miter" stroke="rgb(211,211,211)"><path d="M 29.8004,473.5714 h 758.0147 "/></g><g stroke-linecap="butt" fill="rgb(0,0,0)" stroke-dashoffset="0.0" stroke-dasharray="4.999999999999998,4.999999999999998" stroke-miterlimit="10.0" stroke-width="0.9999999999999997" fill-opacity="0.0" stroke-opacity="1.0" stroke-linejoin="miter" stroke="rgb(211,211,211)"><path d="M 29.8004,397.1429 h 758.0147 "/></g><g stroke-linecap="butt" fill="rgb(0,0,0)" stroke-dashoffset="0.0" stroke-dasharray="4.999999999999998,4.999999999999998" stroke-miterlimit="10.0" stroke-width="0.9999999999999997" fill-opacity="0.0" stroke-opacity="1.0" stroke-linejoin="miter" stroke="rgb(211,211,211)"><path d="M 29.8004,320.7143 h 758.0147 "/></g><g stroke-linecap="butt" fill="rgb(0,0,0)" stroke-dashoffset="0.0" stroke-dasharray="4.999999999999998,4.999999999999998" stroke-miterlimit="10.0" stroke-width="0.9999999999999997" fill-opacity="0.0" stroke-opacity="1.0" stroke-linejoin="miter" stroke="rgb(211,211,211)"><path d="M 29.8004,244.2857 h 758.0147 "/></g><g stroke-linecap="butt" fill="rgb(0,0,0)" stroke-dashoffset="0.0" stroke-dasharray="4.999999999999998,4.999999999999998" stroke-miterlimit="10.0" stroke-width="0.9999999999999997" fill-opacity="0.0" stroke-opacity="1.0" stroke-linejoin="miter" stroke="rgb(211,211,211)"><path d="M 29.8004,167.8571 h 758.0147 "/></g><g stroke-linecap="butt" fill="rgb(0,0,0)" stroke-dashoffset="0.0" stroke-dasharray="4.999999999999998,4.999999999999998" stroke-miterlimit="10.0" stroke-width="0.9999999999999997" fill-opacity="0.0" stroke-opacity="1.0" stroke-linejoin="miter" stroke="rgb(211,211,211)"><path d="M 29.8004,91.4286 h 758.0147 "/></g><g stroke-linecap="butt" fill="rgb(0,0,0)" stroke-dashoffset="0.0" stroke-dasharray="4.999999999999998,4.999999999999998" stroke-miterlimit="10.0" stroke-width="0.9999999999999997" fill-opacity="0.0" stroke-opacity="1.0" stroke-linejoin="miter" stroke="rgb(211,211,211)"><path d="M 29.8004,15.0000 h 758.0147 "/></g><g stroke-linecap="round" fill="rgb(0,0,0)" stroke-miterlimit="10.0" stroke-width="0.9999999999999997" fill-opacity="0.0" stroke-opacity="1.0" stroke-linejoin="round" stroke="rgb(0,0,255)"><defs><clipPath id="myClip1"><path d="M 29.8004,15.0000 v 535.0000 h 758.0147 v -535.0000 Z"/></clipPath></defs><g clip-path="url(#myClip1)"><path d="M 29.8004,91.4286 l 37.9007,30.5714 l 37.9007,30.5714 l 37.9007,30.5714 l 37.9007,30.5714 l 37.9007,30.5714 l 37.9007,30.5714 l 37.9007,30.5714 l 37.9007,30.5714 l 37.9007,30.5714 l 37.9007,30.5714 l 37.9007,15.2857 l 37.9007,15.2857 l 37.9007,15.2857 l 37.9007,15.2857 l 37.9007,15.2857 l 37.9007,15.2857 l 37.9007,15.2857 l 37.9007,15.2857 l 37.9007,15.2857 l 37.9007,15.2857 "/></g></g><g stroke-linecap="butt" fill="rgb(0,0,255)" stroke-miterlimit="10.0" stroke-width="0.0" fill-opacity="1.0" stroke-opacity="0.0" stroke-linejoin="bevel" stroke="rgb(0,0,0)"><defs><clipPath id="myClip2"><path d="M 29.8004,15.0000 v 535.0000 h 758.0147 v -535.0000 Z"/></clipPath></defs><g clip-path="url(#myClip2)"><path d="M 31.8004,91.4286 c 0.0000,1.1046 -0.8954,2.0000 -2.0000 2.0000c -1.1046,0.0000 -2.0000,-0.8954 -2.0000 -2.0000c -0.0000,-1.1046 0.8954,-2.0000 2.0000 -2.0000c 1.1046,-0.0000 2.0000,0.8954 2.0000 2.0000Z"/></g></g><g stroke-linecap="butt" fill="rgb(0,0,0)" stroke-miterlimit="10.0" stroke-width="0.0" fill-opacity="0.0" stroke-opacity="0.0" stroke-linejoin="miter" stroke="rgb(0,0,0)"><defs><clipPath id="myClip3"><path d="M 29.8004,15.0000 v 535.0000 h 758.0147 v -535.0000 Z"/></clipPath></defs><g clip-path="url(#myClip3)"><path d="M 31.8004,91.4286 c 0.0000,1.1046 -0.8954,2.0000 -2.0000 2.0000c -1.1046,0.0000 -2.0000,-0.8954 -2.0000 -2.0000c -0.0000,-1.1046 0.8954,-2.0000 2.0000 -2.0000c 1.1046,-0.0000 2.0000,0.8954 2.0000 2.0000"/></g></g><g stroke-linecap="butt" fill="rgb(0,0,255)" stroke-miterlimit="10.0" stroke-width="0.0" fill-opacity="1.0" stroke-opacity="0.0" stroke-linejoin="bevel" stroke="rgb(0,0,0)"><defs><clipPath id="myClip4"><path d="M 29.8004,15.0000 v 535.0000 h 758.0147 v -535.0000 Z"/></clipPath></defs><g clip-path="url(#myClip4)"><path d="M 69.7012,122.0000 c 0.0000,1.1046 -0.8954,2.0000 -2.0000 2.0000c -1.1046,0.0000 -2.0000,-0.8954 -2.0000 -2.0000c -0.0000,-1.1046 0.8954,-2.0000 2.0000 -2.0000c 1.1046,-0.0000 2.0000,0.8954 2.0000 2.0000Z"/></g></g><g stroke-linecap="butt" fill="rgb(0,0,0)" stroke-miterlimit="10.0" stroke-width="0.0" fill-opacity="0.0" stroke-opacity="0.0" stroke-linejoin="miter" stroke="rgb(0,0,0)"><defs><clipPath id="myClip5"><path d="M 29.8004,15.0000 v 535.0000 h 758.0147 v -535.0000 Z"/></clipPath></defs><g clip-path="url(#myClip5)"><path d="M 69.7012,122.0000 c 0.0000,1.1046 -0.8954,2.0000 -2.0000 2.0000c -1.1046,0.0000 -2.0000,-0.8954 -2.0000 -2.0000c -0.0000,-1.1046 0.8954,-2.0000 2.0000 -2.0000c 1.1046,-0.0000 2.0000,0.8954 2.0000 2.0000"/></g></g><g stroke-linecap="butt" fill="rgb(0,0,255)" stroke-miterlimit="10.0" stroke-width="0.0" fill-opacity="1.0" stroke-opacity="0.0" stroke-linejoin="bevel" stroke="rgb(0,0,0)"><defs><clipPath id="myClip6"><path d="M 29.8004,15.0000 v 535.0000 h 758.0147 v -535.0000 Z"/></clipPath></defs><g clip-path="url(#myClip6)"><path d="M 107.6019,152.5714 c 0.0000,1.1046 -0.8954,2.0000 -2.0000 2.0000c -1.1046,0.0000 -2.0000,-0.8954 -2.0000 -2.0000c -0.0000,-1.1046 0.8954,-2.0000 2.0000 -2.0000c 1.1046,-0.0000 2.0000,0.8954 2.0000 2.0000Z"/></g></g><g stroke-linecap="butt" fill="rgb(0,0,0)" stroke-miterlimit="10.0" stroke-width="0.0" fill-opacity="0.0" stroke-opacity="0.0" stroke-linejoin="miter" stroke="rgb(0,0,0)"><defs><clipPath id="myClip7"><path d="M 29.8004,15.0000 v 535.0000 h 758.0147 v -535.0000 Z"/></clipPath></defs><g clip-path="url(#myClip7)"><path d="M 107.6019,152.5714 c 0.0000,1.1046 -0.8954,2.0000 -2.0000 2.0000c -1.1046,0.0000 -2.0000,-0.8954 -2.0000 -2.0000c -0.0000,-1.1046 0.8954,-2.0000 2.0000 -2.0000c 1.1046,-0.0000 2.0000,0.8954 2.0000 2.0000"/></g></g><g stroke-linecap="butt" fill="rgb(0,0,255)" stroke-miterlimit="10.0" stroke-width="0.0" fill-opacity="1.0" stroke-opacity="0.0" stroke-linejoin="bevel" stroke="rgb(0,0,0)"><defs><clipPath id="myClip8"><path d="M 29.8004,15.0000 v 535.0000 h 758.0147 v -535.0000 Z"/></clipPath></defs><g clip-path="url(#myClip8)"><path d="M 145.5026,183.1429 c 0.0000,1.1046 -0.8954,2.0000 -2.0000 2.0000c -1.1046,0.0000 -2.0000,-0.8954 -2.0000 -2.0000c -0.0000,-1.1046 0.8954,-2.0000 2.0000 -2.0000c 1.1046,-0.0000 2.0000,0.8954 2.0000 2.0000Z"/></g></g><g stroke-linecap="butt" fill="rgb(0,0,0)" stroke-miterlimit="10.0" stroke-width="0.0" fill-opacity="0.0" stroke-opacity="0.0" stroke-linejoin="miter" stroke="rgb(0,0,0)"><defs><clipPath id="myClip9"><path d="M 29.8004,15.0000 v 535.0000 h 758.0147 v -535.0000 Z"/></clipPath></defs><g clip-path="url(#myClip9)"><path d="M 145.5026,183.1429 c 0.0000,1.1046 -0.8954,2.0000 -2.0000 2.0000c -1.1046,0.0000 -2.0000,-0.8954 -2.0000 -2.0000c -0.0000,-1.1046 0.8954,-2.0000 2.0000 -2.0000c 1.1046,-0.0000 2.0000,0.8954 2.0000 2.0000"/></g></g><g stroke-linecap="butt" fill="rgb(0,0,255)" stroke-miterlimit="10.0" stroke-width="0.0" fill-opacity="1.0" stroke-opacity="0.0" stroke-linejoin="bevel" stroke="rgb(0,0,0)"><defs><clipPath id="myClip10"><path d="M 29.8004,15.0000 v 535.0000 h 758.0147 v -535.0000 Z"/></clipPath></defs><g clip-path="url(#myClip10)"><path d="M 183.4034,213.7143 c 0.0000,1.1046 -0.8954,2.0000 -2.0000 2.0000c -1.1046,0.0000 -2.0000,-0.8954 -2.0000 -2.0000c -0.0000,-1.1046 0.8954,-2.0000 2.0000 -2.0000c 1.1046,-0.0000 2.0000,0.8954 2.0000 2.0000Z"/></g></g><g stroke-linecap="butt" fill="rgb(0,0,0)" stroke-miterlimit="10.0" stroke-width="0.0" fill-opacity="0.0" stroke-opacity="0.0" stroke-linejoin="miter" stroke="rgb(0,0,0)"><defs><clipPath id="myClip11"><path d="M 29.8004,15.0000 v 535.0000 h 758.0147 v -535.0000 Z"/></clipPath></defs><g clip-path="url(#myClip11)"><path d="M 183.4034,213.7143 c 0.0000,1.1046 -0.8954,2.0000 -2.0000 2.0000c -1.1046,0.0000 -2.0000,-0.8954 -2.0000 -2.0000c -0.0000,-1.1046 0.8954,-2.0000 2.0000 -2.0000c 1.1046,-0.0000 2.0000,0.8954 2.0000 2.0000"/></g></g><g stroke-linecap="butt" fill="rgb(0,0,255)" stroke-miterlimit="10.0" stroke-width="0.0" fill-opacity="1.0" stroke-opacity="0.0" stroke-linejoin="bevel" stroke="rgb(0,0,0)"><defs><clipPath id="myClip12"><path d="M 29.8004,15.0000 v 535.0000 h 758.0147 v -535.0000 Z"/></clipPath></defs><g clip-path="url(#myClip12)"><path d="M 221.3041,244.2857 c 0.0000,1.1046 -0.8954,2.0000 -2.0000 2.0000c -1.1046,0.0000 -2.0000,-0.8954 -2.0000 -2.0000c -0.0000,-1.1046 0.8954,-2.0000 2.0000 -2.0000c 1.1046,-0.0000 2.0000,0.8954 2.0000 2.0000Z"/></g></g><g stroke-linecap="butt" fill="rgb(0,0,0)" stroke-miterlimit="10.0" stroke-width="0.0" fill-opacity="0.0" stroke-opacity="0.0" stroke-linejoin="miter" stroke="rgb(0,0,0)"><defs><clipPath id="myClip13"><path d="M 29.8004,15.0000 v 535.0000 h 758.0147 v -535.0000 Z"/></clipPath></defs><g clip-path="url(#myClip13)"><path d="M 221.3041,244.2857 c 0.0000,1.1046 -0.8954,2.0000 -2.0000 2.0000c -1.1046,0.0000 -2.0000,-0.8954 -2.0000 -2.0000c -0.0000,-1.1046 0.8954,-2.0000 2.0000 -2.0000c 1.1046,-0.0000 2.0000,0.8954 2.0000 2.0000"/></g></g><g stroke-linecap="butt" fill="rgb(0,0,255)" stroke-miterlimit="10.0" stroke-width="0.0" fill-opacity="1.0" stroke-opacity="0.0" stroke-linejoin="bevel" stroke="rgb(0,0,0)"><defs><clipPath id="myClip14"><path d="M 29.8004,15.0000 v 535.0000 h 758.0147 v -535.0000 Z"/></clipPath></defs><g clip-path="url(#myClip14)"><path d="M 259.2048,274.8571 c 0.0000,1.1046 -0.8954,2.0000 -2.0000 2.0000c -1.1046,0.0000 -2.0000,-0.8954 -2.0000 -2.0000c -0.0000,-1.1046 0.8954,-2.0000 2.0000 -2.0000c 1.1046,-0.0000 2.0000,0.8954 2.0000 2.0000Z"/></g></g><g stroke-linecap="butt" fill="rgb(0,0,0)" stroke-miterlimit="10.0" stroke-width="0.0" fill-opacity="0.0" stroke-opacity="0.0" stroke-linejoin="miter" stroke="rgb(0,0,0)"><defs><clipPath id="myClip15"><path d="M 29.8004,15.0000 v 535.0000 h 758.0147 v -535.0000 Z"/></clipPath></defs><g clip-path="url(#myClip15)"><path d="M 259.2048,274.8571 c 0.0000,1.1046 -0.8954,2.0000 -2.0000 2.0000c -1.1046,0.0000 -2.0000,-0.8954 -2.0000 -2.0000c -0.0000,-1.1046 0.8954,-2.0000 2.0000 -2.0000c 1.1046,-0.0000 2.0000,0.8954 2.0000 2.0000"/></g></g><g stroke-linecap="butt" fill="rgb(0,0,255)" stroke-miterlimit="10.0" stroke-width="0.0" fill-opacity="1.0" stroke-opacity="0.0" stroke-linejoin="bevel" stroke="rgb(0,0,0)"><defs><clipPath id="myClip16"><path d="M 29.8004,15.0000 v 535.0000 h 758.0147 v -535.0000 Z"/></clipPath></defs><g clip-path="url(#myClip16)"><path d="M 297.1056,305.4286 c 0.0000,1.1046 -0.8954,2.0000 -2.0000 2.0000c -1.1046,0.0000 -2.0000,-0.8954 -2.0000 -2.0000c -0.0000,-1.1046 0.8954,-2.0000 2.0000 -2.0000c 1.1046,-0.0000 2.0000,0.8954 2.0000 2.0000Z"/></g></g><g stroke-linecap="butt" fill="rgb(0,0,0)" stroke-miterlimit="10.0" stroke-width="0.0" fill-opacity="0.0" stroke-opacity="0.0" stroke-linejoin="miter" stroke="rgb(0,0,0)"><defs><clipPath id="myClip17"><path d="M 29.8004,15.0000 v 535.0000 h 758.0147 v -535.0000 Z"/></clipPath></defs><g clip-path="url(#myClip17)"><path d="M 297.1056,305.4286 c 0.0000,1.1046 -0.8954,2.0000 -2.0000 2.0000c -1.1046,0.0000 -2.0000,-0.8954 -2.0000 -2.0000c -0.0000,-1.1046 0.8954,-2.0000 2.0000 -2.0000c 1.1046,-0.0000 2.0000,0.8954 2.0000 2.0000"/></g></g><g stroke-linecap="butt" fill="rgb(0,0,255)" stroke-miterlimit="10.0" stroke-width="0.0" fill-opacity="1.0" stroke-opacity="0.0" stroke-linejoin="bevel" stroke="rgb(0,0,0)"><defs><clipPath id="myClip18"><path d="M 29.8004,15.0000 v 535.0000 h 758.0147 v -535.0000 Z"/></clipPath></defs><g clip-path="url(#myClip18)"><path d="M 335.0063,336.0000 c 0.0000,1.1046 -0.8954,2.0000 -2.0000 2.0000c -1.1046,0.0000 -2.0000,-0.8954 -2.0000 -2.0000c -0.0000,-1.1046 0.8954,-2.0000 2.0000 -2.0000c 1.1046,-0.0000 2.0000,0.8954 2.0000 2.0000Z"/></g></g><g stroke-linecap="butt" fill="rgb(0,0,0)" stroke-miterlimit="10.0" stroke-width="0.0" fill-opacity="0.0" stroke-opacity="0.0" stroke-linejoin="miter" stroke="rgb(0,0,0)"><defs><clipPath id="myClip19"><path d="M 29.8004,15.0000 v 535.0000 h 758.0147 v -535.0000 Z"/></clipPath></defs><g clip-path="url(#myClip19)"><path d="M 335.0063,336.0000 c 0.0000,1.1046 -0.8954,2.0000 -2.0000 2.0000c -1.1046,0.0000 -2.0000,-0.8954 -2.0000 -2.0000c -0.0000,-1.1046 0.8954,-2.0000 2.0000 -2.0000c 1.1046,-0.0000 2.0000,0.8954 2.0000 2.0000"/></g></g><g stroke-linecap="butt" fill="rgb(0,0,255)" stroke-miterlimit="10.0" stroke-width="0.0" fill-opacity="1.0" stroke-opacity="0.0" stroke-linejoin="bevel" stroke="rgb(0,0,0)"><defs><clipPath id="myClip20"><path d="M 29.8004,15.0000 v 535.0000 h 758.0147 v -535.0000 Z"/></clipPath></defs><g clip-path="url(#myClip20)"><path d="M 372.9070,366.5714 c 0.0000,1.1046 -0.8954,2.0000 -2.0000 2.0000c -1.1046,0.0000 -2.0000,-0.8954 -2.0000 -2.0000c -0.0000,-1.1046 0.8954,-2.0000 2.0000 -2.0000c 1.1046,-0.0000 2.0000,0.8954 2.0000 2.0000Z"/></g></g><g stroke-linecap="butt" fill="rgb(0,0,0)" stroke-miterlimit="10.0" stroke-width="0.0" fill-opacity="0.0" stroke-opacity="0.0" stroke-linejoin="miter" stroke="rgb(0,0,0)"><defs><clipPath id="myClip21"><path d="M 29.8004,15.0000 v 535.0000 h 758.0147 v -535.0000 Z"/></clipPath></defs><g clip-path="url(#myClip21)"><path d="M 372.9070,366.5714 c 0.0000,1.1046 -0.8954,2.0000 -2.0000 2.0000c -1.1046,0.0000 -2.0000,-0.8954 -2.0000 -2.0000c -0.0000,-1.1046 0.8954,-2.0000 2.0000 -2.0000c 1.1046,-0.0000 2.0000,0.8954 2.0000 2.0000"/></g></g><g stroke-linecap="butt" fill="rgb(0,0,255)" stroke-miterlimit="10.0" stroke-width="0.0" fill-opacity="1.0" stroke-opacity="0.0" stroke-linejoin="bevel" stroke="rgb(0,0,0)"><defs><clipPath id="myClip22"><path d="M 29.8004,15.0000 v 535.0000 h 758.0147 v -535.0000 Z"/></clipPath></defs><g clip-path="url(#myClip22)"><path d="M 410.8078,397.1429 c 0.0000,1.1046 -0.8954,2.0000 -2.0000 2.0000c -1.1046,0.0000 -2.0000,-0.8954 -2.0000 -2.0000c -0.0000,-1.1046 0.8954,-2.0000 2.0000 -2.0000c 1.1046,-0.0000 2.0000,0.8954 2.0000 2.0000Z"/></g></g><g stroke-linecap="butt" fill="rgb(0,0,0)" stroke-miterlimit="10.0" stroke-width="0.0" fill-opacity="0.0" stroke-opacity="0.0" stroke-linejoin="miter" stroke="rgb(0,0,0)"><defs><clipPath id="myClip23"><path d="M 29.8004,15.0000 v 535.0000 h 758.0147 v -535.0000 Z"/></clipPath></defs><g clip-path="url(#myClip23)"><path d="M 410.8078,397.1429 c 0.0000,1.1046 -0.8954,2.0000 -2.0000 2.0000c -1.1046,0.0000 -2.0000,-0.8954 -2.0000 -2.0000c -0.0000,-1.1046 0.8954,-2.0000 2.0000 -2.0000c 1.1046,-0.0000 2.0000,0.8954 2.0000 2.0000"/></g></g><g stroke-linecap="butt" fill="rgb(0,0,255)" stroke-miterlimit="10.0" stroke-width="0.0" fill-opacity="1.0" stroke-opacity="0.0" stroke-linejoin="bevel" stroke="rgb(0,0,0)"><defs><clipPath id="myClip24"><path d="M 29.8004,15.0000 v 535.0000 h 758.0147 v -535.0000 Z"/></clipPath></defs><g clip-path="url(#myClip24)"><path d="M 448.7085,412.4286 c 0.0000,1.1046 -0.8954,2.0000 -2.0000 2.0000c -1.1046,0.0000 -2.0000,-0.8954 -2.0000 -2.0000c -0.0000,-1.1046 0.8954,-2.0000 2.0000 -2.0000c 1.1046,-0.0000 2.0000,0.8954 2.0000 2.0000Z"/></g></g><g stroke-linecap="butt" fill="rgb(0,0,0)" stroke-miterlimit="10.0" stroke-width="0.0" fill-opacity="0.0" stroke-opacity="0.0" stroke-linejoin="miter" stroke="rgb(0,0,0)"><defs><clipPath id="myClip25"><path d="M 29.8004,15.0000 v 535.0000 h 758.0147 v -535.0000 Z"/></clipPath></defs><g clip-path="url(#myClip25)"><path d="M 448.7085,412.4286 c 0.0000,1.1046 -0.8954,2.0000 -2.0000 2.0000c -1.1046,0.0000 -2.0000,-0.8954 -2.0000 -2.0000c -0.0000,-1.1046 0.8954,-2.0000 2.0000 -2.0000c 1.1046,-0.0000 2.0000,0.8954 2.0000 2.0000"/></g></g><g stroke-linecap="butt" fill="rgb(0,0,255)" stroke-miterlimit="10.0" stroke-width="0.0" fill-opacity="1.0" stroke-opacity="0.0" stroke-linejoin="bevel" stroke="rgb(0,0,0)"><defs><clipPath id="myClip26"><path d="M 29.8004,15.0000 v 535.0000 h 758.0147 v -535.0000 Z"/></clipPath></defs><g clip-path="url(#myClip26)"><path d="M 486.6092,427.7143 c 0.0000,1.1046 -0.8954,2.0000 -2.0000 2.0000c -1.1046,0.0000 -2.0000,-0.8954 -2.0000 -2.0000c -0.0000,-1.1046 0.8954,-2.0000 2.0000 -2.0000c 1.1046,-0.0000 2.0000,0.8954 2.0000 2.0000Z"/></g></g><g stroke-linecap="butt" fill="rgb(0,0,0)" stroke-miterlimit="10.0" stroke-width="0.0" fill-opacity="0.0" stroke-opacity="0.0" stroke-linejoin="miter" stroke="rgb(0,0,0)"><defs><clipPath id="myClip27"><path d="M 29.8004,15.0000 v 535.0000 h 758.0147 v -535.0000 Z"/></clipPath></defs><g clip-path="url(#myClip27)"><path d="M 486.6092,427.7143 c 0.0000,1.1046 -0.8954,2.0000 -2.0000 2.0000c -1.1046,0.0000 -2.0000,-0.8954 -2.0000 -2.0000c -0.0000,-1.1046 0.8954,-2.0000 2.0000 -2.0000c 1.1046,-0.0000 2.0000,0.8954 2.0000 2.0000"/></g></g><g stroke-linecap="butt" fill="rgb(0,0,255)" stroke-miterlimit="10.0" stroke-width="0.0" fill-opacity="1.0" stroke-opacity="0.0" stroke-linejoin="bevel" stroke="rgb(0,0,0)"><defs><clipPath id="myClip28"><path d="M 29.8004,15.0000 v 535.0000 h 758.0147 v -535.0000 Z"/></clipPath></defs><g clip-path="url(#myClip28)"><path d="M 524.5100,443.0000 c 0.0000,1.1046 -0.8954,2.0000 -2.0000 2.0000c -1.1046,0.0000 -2.0000,-0.8954 -2.0000 -2.0000c -0.0000,-1.1046 0.8954,-2.0000 2.0000 -2.0000c 1.1046,-0.0000 2.0000,0.8954 2.0000 2.0000Z"/></g></g><g stroke-linecap="butt" fill="rgb(0,0,0)" stroke-miterlimit="10.0" stroke-width="0.0" fill-opacity="0.0" stroke-opacity="0.0" stroke-linejoin="miter" stroke="rgb(0,0,0)"><defs><clipPath id="myClip29"><path d="M 29.8004,15.0000 v 535.0000 h 758.0147 v -535.0000 Z"/></clipPath></defs><g clip-path="url(#myClip29)"><path d="M 524.5100,443.0000 c 0.0000,1.1046 -0.8954,2.0000 -2.0000 2.0000c -1.1046,0.0000 -2.0000,-0.8954 -2.0000 -2.0000c -0.0000,-1.1046 0.8954,-2.0000 2.0000 -2.0000c 1.1046,-0.0000 2.0000,0.8954 2.0000 2.0000"/></g></g><g stroke-linecap="butt" fill="rgb(0,0,255)" stroke-miterlimit="10.0" stroke-width="0.0" fill-opacity="1.0" stroke-opacity="0.0" stroke-linejoin="bevel" stroke="rgb(0,0,0)"><defs><clipPath id="myClip30"><path d="M 29.8004,15.0000 v 535.0000 h 758.0147 v -535.0000 Z"/></clipPath></defs><g clip-path="url(#myClip30)"><path d="M 562.4107,458.2857 c 0.0000,1.1046 -0.8954,2.0000 -2.0000 2.0000c -1.1046,0.0000 -2.0000,-0.8954 -2.0000 -2.0000c -0.0000,-1.1046 0.8954,-2.0000 2.0000 -2.0000c 1.1046,-0.0000 2.0000,0.8954 2.0000 2.0000Z"/></g></g><g stroke-linecap="butt" fill="rgb(0,0,0)" stroke-miterlimit="10.0" stroke-width="0.0" fill-opacity="0.0" stroke-opacity="0.0" stroke-linejoin="miter" stroke="rgb(0,0,0)"><defs><clipPath id="myClip31"><path d="M 29.8004,15.0000 v 535.0000 h 758.0147 v -535.0000 Z"/></clipPath></defs><g clip-path="url(#myClip31)"><path d="M 562.4107,458.2857 c 0.0000,1.1046 -0.8954,2.0000 -2.0000 2.0000c -1.1046,0.0000 -2.0000,-0.8954 -2.0000 -2.0000c -0.0000,-1.1046 0.8954,-2.0000 2.0000 -2.0000c 1.1046,-0.0000 2.0000,0.8954 2.0000 2.0000"/></g></g><g stroke-linecap="butt" fill="rgb(0,0,255)" stroke-miterlimit="10.0" stroke-width="0.0" fill-opacity="1.0" stroke-opacity="0.0" stroke-linejoin="bevel" stroke="rgb(0,0,0)"><defs><clipPath id="myClip32"><path d="M 29.8004,15.0000 v 535.0000 h 758.0147 v -535.0000 Z"/></clipPath></defs><g clip-path="url(#myClip32)"><path d="M 600.3114,473.5714 c 0.0000,1.1046 -0.8954,2.0000 -2.0000 2.0000c -1.1046,0.0000 -2.0000,-0.8954 -2.0000 -2.0000c -0.0000,-1.1046 0.8954,-2.0000 2.0000 -2.0000c 1.1046,-0.0000 2.0000,0.8954 2.0000 2.0000Z"/></g></g><g stroke-linecap="butt" fill="rgb(0,0,0)" stroke-miterlimit="10.0" stroke-width="0.0" fill-opacity="0.0" stroke-opacity="0.0" stroke-linejoin="miter" stroke="rgb(0,0,0)"><defs><clipPath id="myClip33"><path d="M 29.8004,15.0000 v 535.0000 h 758.0147 v -535.0000 Z"/></clipPath></defs><g clip-path="url(#myClip33)"><path d="M 600.3114,473.5714 c 0.0000,1.1046 -0.8954,2.0000 -2.0000 2.0000c -1.1046,0.0000 -2.0000,-0.8954 -2.0000 -2.0000c -0.0000,-1.1046 0.8954,-2.0000 2.0000 -2.0000c 1.1046,-0.0000 2.0000,0.8954 2.0000 2.0000"/></g></g><g stroke-linecap="butt" fill="rgb(0,0,255)" stroke-miterlimit="10.0" stroke-width="0.0" fill-opacity="1.0" stroke-opacity="0.0" stroke-linejoin="bevel" stroke="rgb(0,0,0)"><defs><clipPath id="myClip34"><path d="M 29.8004,15.0000 v 535.0000 h 758.0147 v -535.0000 Z"/></clipPath></defs><g clip-path="url(#myClip34)"><path d="M 638.2122,488.8571 c 0.0000,1.1046 -0.8954,2.0000 -2.0000 2.0000c -1.1046,0.0000 -2.0000,-0.8954 -2.0000 -2.0000c -0.0000,-1.1046 0.8954,-2.0000 2.0000 -2.0000c 1.1046,-0.0000 2.0000,0.8954 2.0000 2.0000Z"/></g></g><g stroke-linecap="butt" fill="rgb(0,0,0)" stroke-miterlimit="10.0" stroke-width="0.0" fill-opacity="0.0" stroke-opacity="0.0" stroke-linejoin="miter" stroke="rgb(0,0,0)"><defs><clipPath id="myClip35"><path d="M 29.8004,15.0000 v 535.0000 h 758.0147 v -535.0000 Z"/></clipPath></defs><g clip-path="url(#myClip35)"><path d="M 638.2122,488.8571 c 0.0000,1.1046 -0.8954,2.0000 -2.0000 2.0000c -1.1046,0.0000 -2.0000,-0.8954 -2.0000 -2.0000c -0.0000,-1.1046 0.8954,-2.0000 2.0000 -2.0000c 1.1046,-0.0000 2.0000,0.8954 2.0000 2.0000"/></g></g><g stroke-linecap="butt" fill="rgb(0,0,255)" stroke-miterlimit="10.0" stroke-width="0.0" fill-opacity="1.0" stroke-opacity="0.0" stroke-linejoin="bevel" stroke="rgb(0,0,0)"><defs><clipPath id="myClip36"><path d="M 29.8004,15.0000 v 535.0000 h 758.0147 v -535.0000 Z"/></clipPath></defs><g clip-path="url(#myClip36)"><path d="M 676.1129,504.1429 c 0.0000,1.1046 -0.8954,2.0000 -2.0000 2.0000c -1.1046,0.0000 -2.0000,-0.8954 -2.0000 -2.0000c -0.0000,-1.1046 0.8954,-2.0000 2.0000 -2.0000c 1.1046,-0.0000 2.0000,0.8954 2.0000 2.0000Z"/></g></g><g stroke-linecap="butt" fill="rgb(0,0,0)" stroke-miterlimit="10.0" stroke-width="0.0" fill-opacity="0.0" stroke-opacity="0.0" stroke-linejoin="miter" stroke="rgb(0,0,0)"><defs><clipPath id="myClip37"><path d="M 29.8004,15.0000 v 535.0000 h 758.0147 v -535.0000 Z"/></clipPath></defs><g clip-path="url(#myClip37)"><path d="M 676.1129,504.1429 c 0.0000,1.1046 -0.8954,2.0000 -2.0000 2.0000c -1.1046,0.0000 -2.0000,-0.8954 -2.0000 -2.0000c -0.0000,-1.1046 0.8954,-2.0000 2.0000 -2.0000c 1.1046,-0.0000 2.0000,0.8954 2.0000 2.0000"/></g></g><g stroke-linecap="butt" fill="rgb(0,0,255)" stroke-miterlimit="10.0" stroke-width="0.0" fill-opacity="1.0" stroke-opacity="0.0" stroke-linejoin="bevel" stroke="rgb(0,0,0)"><defs><clipPath id="myClip38"><path d="M 29.8004,15.0000 v 535.0000 h 758.0147 v -535.0000 Z"/></clipPath></defs><g clip-path="url(#myClip38)"><path d="M 714.0137,519.4286 c 0.0000,1.1046 -0.8954,2.0000 -2.0000 2.0000c -1.1046,0.0000 -2.0000,-0.8954 -2.0000 -2.0000c -0.0000,-1.1046 0.8954,-2.0000 2.0000 -2.0000c 1.1046,-0.0000 2.0000,0.8954 2.0000 2.0000Z"/></g></g><g stroke-linecap="butt" fill="rgb(0,0,0)" stroke-miterlimit="10.0" stroke-width="0.0" fill-opacity="0.0" stroke-opacity="0.0" stroke-linejoin="miter" stroke="rgb(0,0,0)"><defs><clipPath id="myClip39"><path d="M 29.8004,15.0000 v 535.0000 h 758.0147 v -535.0000 Z"/></clipPath></defs><g clip-path="url(#myClip39)"><path d="M 714.0137,519.4286 c 0.0000,1.1046 -0.8954,2.0000 -2.0000 2.0000c -1.1046,0.0000 -2.0000,-0.8954 -2.0000 -2.0000c -0.0000,-1.1046 0.8954,-2.0000 2.0000 -2.0000c 1.1046,-0.0000 2.0000,0.8954 2.0000 2.0000"/></g></g><g stroke-linecap="butt" fill="rgb(0,0,255)" stroke-miterlimit="10.0" stroke-width="0.0" fill-opacity="1.0" stroke-opacity="0.0" stroke-linejoin="bevel" stroke="rgb(0,0,0)"><defs><clipPath id="myClip40"><path d="M 29.8004,15.0000 v 535.0000 h 758.0147 v -535.0000 Z"/></clipPath></defs><g clip-path="url(#myClip40)"><path d="M 751.9144,534.7143 c 0.0000,1.1046 -0.8954,2.0000 -2.0000 2.0000c -1.1046,0.0000 -2.0000,-0.8954 -2.0000 -2.0000c -0.0000,-1.1046 0.8954,-2.0000 2.0000 -2.0000c 1.1046,-0.0000 2.0000,0.8954 2.0000 2.0000Z"/></g></g><g stroke-linecap="butt" fill="rgb(0,0,0)" stroke-miterlimit="10.0" stroke-width="0.0" fill-opacity="0.0" stroke-opacity="0.0" stroke-linejoin="miter" stroke="rgb(0,0,0)"><defs><clipPath id="myClip41"><path d="M 29.8004,15.0000 v 535.0000 h 758.0147 v -535.0000 Z"/></clipPath></defs><g clip-path="url(#myClip41)"><path d="M 751.9144,534.7143 c 0.0000,1.1046 -0.8954,2.0000 -2.0000 2.0000c -1.1046,0.0000 -2.0000,-0.8954 -2.0000 -2.0000c -0.0000,-1.1046 0.8954,-2.0000 2.0000 -2.0000c 1.1046,-0.0000 2.0000,0.8954 2.0000 2.0000"/></g></g><g stroke-linecap="butt" fill="rgb(0,0,255)" stroke-miterlimit="10.0" stroke-width="0.0" fill-opacity="1.0" stroke-opacity="0.0" stroke-linejoin="bevel" stroke="rgb(0,0,0)"><defs><clipPath id="myClip42"><path d="M 29.8004,15.0000 v 535.0000 h 758.0147 v -535.0000 Z"/></clipPath></defs><g clip-path="url(#myClip42)"><path d="M 789.8151,550.0000 c 0.0000,1.1046 -0.8954,2.0000 -2.0000 2.0000c -1.1046,0.0000 -2.0000,-0.8954 -2.0000 -2.0000c -0.0000,-1.1046 0.8954,-2.0000 2.0000 -2.0000c 1.1046,-0.0000 2.0000,0.8954 2.0000 2.0000Z"/></g></g><g stroke-linecap="butt" fill="rgb(0,0,0)" stroke-miterlimit="10.0" stroke-width="0.0" fill-opacity="0.0" stroke-opacity="0.0" stroke-linejoin="miter" stroke="rgb(0,0,0)"><defs><clipPath id="myClip43"><path d="M 29.8004,15.0000 v 535.0000 h 758.0147 v -535.0000 Z"/></clipPath></defs><g clip-path="url(#myClip43)"><path d="M 789.8151,550.0000 c 0.0000,1.1046 -0.8954,2.0000 -2.0000 2.0000c -1.1046,0.0000 -2.0000,-0.8954 -2.0000 -2.0000c -0.0000,-1.1046 0.8954,-2.0000 2.0000 -2.0000c 1.1046,-0.0000 2.0000,0.8954 2.0000 2.0000"/></g></g><g stroke-linecap="square" fill="rgb(0,0,0)" stroke-miterlimit="10.0" stroke-width="0.9999999999999997" fill-opacity="0.0" stroke-opacity="1.0" stroke-linejoin="miter" stroke="rgb(0,0,0)"><path d="M 29.8004,550.0000 v -535.0000 "/></g><g stroke-linecap="butt" fill="rgb(0,0,0)" stroke-miterlimit="10.0" stroke-width="0.9999999999999997" fill-opacity="0.0" stroke-opacity="1.0" stroke-linejoin="miter" stroke="rgb(0,0,0)"><path d="M 29.8004,550.0000 h 2.0000 "/></g><g stroke-linecap="butt" fill="rgb(0,0,0)" stroke-miterlimit="10.0" stroke-width="0.9999999999999997" fill-opacity="0.0" stroke-opacity="1.0" stroke-linejoin="miter" stroke="rgb(0,0,0)"><path d="M 29.8004,534.7143 h 2.0000 "/></g><g stroke-linecap="butt" fill="rgb(0,0,0)" stroke-miterlimit="10.0" stroke-width="0.9999999999999997" fill-opacity="0.0" stroke-opacity="1.0" stroke-linejoin="miter" stroke="rgb(0,0,0)"><path d="M 29.8004,519.4286 h 2.0000 "/></g><g stroke-linecap="butt" fill="rgb(0,0,0)" stroke-miterlimit="10.0" stroke-width="0.9999999999999997" fill-opacity="0.0" stroke-opacity="1.0" stroke-linejoin="miter" stroke="rgb(0,0,0)"><path d="M 29.8004,504.1429 h 2.0000 "/></g><g stroke-linecap="butt" fill="rgb(0,0,0)" stroke-miterlimit="10.0" stroke-width="0.9999999999999997" fill-opacity="0.0" stroke-opacity="1.0" stroke-linejoin="miter" stroke="rgb(0,0,0)"><path d="M 29.8004,488.8571 h 2.0000 "/></g><g stroke-linecap="butt" fill="rgb(0,0,0)" stroke-miterlimit="10.0" stroke-width="0.9999999999999997" fill-opacity="0.0" stroke-opacity="1.0" stroke-linejoin="miter" stroke="rgb(0,0,0)"><path d="M 29.8004,473.5714 h 2.0000 "/></g><g stroke-linecap="butt" fill="rgb(0,0,0)" stroke-miterlimit="10.0" stroke-width="0.9999999999999997" fill-opacity="0.0" stroke-opacity="1.0" stroke-linejoin="miter" stroke="rgb(0,0,0)"><path d="M 29.8004,458.2857 h 2.0000 "/></g><g stroke-linecap="butt" fill="rgb(0,0,0)" stroke-miterlimit="10.0" stroke-width="0.9999999999999997" fill-opacity="0.0" stroke-opacity="1.0" stroke-linejoin="miter" stroke="rgb(0,0,0)"><path d="M 29.8004,443.0000 h 2.0000 "/></g><g stroke-linecap="butt" fill="rgb(0,0,0)" stroke-miterlimit="10.0" stroke-width="0.9999999999999997" fill-opacity="0.0" stroke-opacity="1.0" stroke-linejoin="miter" stroke="rgb(0,0,0)"><path d="M 29.8004,427.7143 h 2.0000 "/></g><g stroke-linecap="butt" fill="rgb(0,0,0)" stroke-miterlimit="10.0" stroke-width="0.9999999999999997" fill-opacity="0.0" stroke-opacity="1.0" stroke-linejoin="miter" stroke="rgb(0,0,0)"><path d="M 29.8004,412.4286 h 2.0000 "/></g><g stroke-linecap="butt" fill="rgb(0,0,0)" stroke-miterlimit="10.0" stroke-width="0.9999999999999997" fill-opacity="0.0" stroke-opacity="1.0" stroke-linejoin="miter" stroke="rgb(0,0,0)"><path d="M 29.8004,397.1429 h 2.0000 "/></g><g stroke-linecap="butt" fill="rgb(0,0,0)" stroke-miterlimit="10.0" stroke-width="0.9999999999999997" fill-opacity="0.0" stroke-opacity="1.0" stroke-linejoin="miter" stroke="rgb(0,0,0)"><path d="M 29.8004,381.8571 h 2.0000 "/></g><g stroke-linecap="butt" fill="rgb(0,0,0)" stroke-miterlimit="10.0" stroke-width="0.9999999999999997" fill-opacity="0.0" stroke-opacity="1.0" stroke-linejoin="miter" stroke="rgb(0,0,0)"><path d="M 29.8004,366.5714 h 2.0000 "/></g><g stroke-linecap="butt" fill="rgb(0,0,0)" stroke-miterlimit="10.0" stroke-width="0.9999999999999997" fill-opacity="0.0" stroke-opacity="1.0" stroke-linejoin="miter" stroke="rgb(0,0,0)"><path d="M 29.8004,351.2857 h 2.0000 "/></g><g stroke-linecap="butt" fill="rgb(0,0,0)" stroke-miterlimit="10.0" stroke-width="0.9999999999999997" fill-opacity="0.0" stroke-opacity="1.0" stroke-linejoin="miter" stroke="rgb(0,0,0)"><path d="M 29.8004,336.0000 h 2.0000 "/></g><g stroke-linecap="butt" fill="rgb(0,0,0)" stroke-miterlimit="10.0" stroke-width="0.9999999999999997" fill-opacity="0.0" stroke-opacity="1.0" stroke-linejoin="miter" stroke="rgb(0,0,0)"><path d="M 29.8004,320.7143 h 2.0000 "/></g><g stroke-linecap="butt" fill="rgb(0,0,0)" stroke-miterlimit="10.0" stroke-width="0.9999999999999997" fill-opacity="0.0" stroke-opacity="1.0" stroke-linejoin="miter" stroke="rgb(0,0,0)"><path d="M 29.8004,305.4286 h 2.0000 "/></g><g stroke-linecap="butt" fill="rgb(0,0,0)" stroke-miterlimit="10.0" stroke-width="0.9999999999999997" fill-opacity="0.0" stroke-opacity="1.0" stroke-linejoin="miter" stroke="rgb(0,0,0)"><path d="M 29.8004,290.1429 h 2.0000 "/></g><g stroke-linecap="butt" fill="rgb(0,0,0)" stroke-miterlimit="10.0" stroke-width="0.9999999999999997" fill-opacity="0.0" stroke-opacity="1.0" stroke-linejoin="miter" stroke="rgb(0,0,0)"><path d="M 29.8004,274.8571 h 2.0000 "/></g><g stroke-linecap="butt" fill="rgb(0,0,0)" stroke-miterlimit="10.0" stroke-width="0.9999999999999997" fill-opacity="0.0" stroke-opacity="1.0" stroke-linejoin="miter" stroke="rgb(0,0,0)"><path d="M 29.8004,259.5714 h 2.0000 "/></g><g stroke-linecap="butt" fill="rgb(0,0,0)" stroke-miterlimit="10.0" stroke-width="0.9999999999999997" fill-opacity="0.0" stroke-opacity="1.0" stroke-linejoin="miter" stroke="rgb(0,0,0)"><path d="M 29.8004,244.2857 h 2.0000 "/></g><g stroke-linecap="butt" fill="rgb(0,0,0)" stroke-miterlimit="10.0" stroke-width="0.9999999999999997" fill-opacity="0.0" stroke-opacity="1.0" stroke-linejoin="miter" stroke="rgb(0,0,0)"><path d="M 29.8004,229.0000 h 2.0000 "/></g><g stroke-linecap="butt" fill="rgb(0,0,0)" stroke-miterlimit="10.0" stroke-width="0.9999999999999997" fill-opacity="0.0" stroke-opacity="1.0" stroke-linejoin="miter" stroke="rgb(0,0,0)"><path d="M 29.8004,213.7143 h 2.0000 "/></g><g stroke-linecap="butt" fill="rgb(0,0,0)" stroke-miterlimit="10.0" stroke-width="0.9999999999999997" fill-opacity="0.0" stroke-opacity="1.0" stroke-linejoin="miter" stroke="rgb(0,0,0)"><path d="M 29.8004,198.4286 h 2.0000 "/></g><g stroke-linecap="butt" fill="rgb(0,0,0)" stroke-miterlimit="10.0" stroke-width="0.9999999999999997" fill-opacity="0.0" stroke-opacity="1.0" stroke-linejoin="miter" stroke="rgb(0,0,0)"><path d="M 29.8004,183.1429 h 2.0000 "/></g><g stroke-linecap="butt" fill="rgb(0,0,0)" stroke-miterlimit="10.0" stroke-width="0.9999999999999997" fill-opacity="0.0" stroke-opacity="1.0" stroke-linejoin="miter" stroke="rgb(0,0,0)"><path d="M 29.8004,167.8571 h 2.0000 "/></g><g stroke-linecap="butt" fill="rgb(0,0,0)" stroke-miterlimit="10.0" stroke-width="0.9999999999999997" fill-opacity="0.0" stroke-opacity="1.0" stroke-linejoin="miter" stroke="rgb(0,0,0)"><path d="M 29.8004,152.5714 h 2.0000 "/></g><g stroke-linecap="butt" fill="rgb(0,0,0)" stroke-miterlimit="10.0" stroke-width="0.9999999999999997" fill-opacity="0.0" stroke-opacity="1.0" stroke-linejoin="miter" stroke="rgb(0,0,0)"><path d="M 29.8004,137.2857 h 2.0000 "/></g><g stroke-linecap="butt" fill="rgb(0,0,0)" stroke-miterlimit="10.0" stroke-width="0.9999999999999997" fill-opacity="0.0" stroke-opacity="1.0" stroke-linejoin="miter" stroke="rgb(0,0,0)"><path d="M 29.8004,122.0000 h 2.0000 "/></g><g stroke-linecap="butt" fill="rgb(0,0,0)" stroke-miterlimit="10.0" stroke-width="0.9999999999999997" fill-opacity="0.0" stroke-opacity="1.0" stroke-linejoin="miter" stroke="rgb(0,0,0)"><path d="M 29.8004,106.7143 h 2.0000 "/></g><g stroke-linecap="butt" fill="rgb(0,0,0)" stroke-miterlimit="10.0" stroke-width="0.9999999999999997" fill-opacity="0.0" stroke-opacity="1.0" stroke-linejoin="miter" stroke="rgb(0,0,0)"><path d="M 29.8004,91.4286 h 2.0000 "/></g><g stroke-linecap="butt" fill="rgb(0,0,0)" stroke-miterlimit="10.0" stroke-width="0.9999999999999997" fill-opacity="0.0" stroke-opacity="1.0" stroke-linejoin="miter" stroke="rgb(0,0,0)"><path d="M 29.8004,76.1429 h 2.0000 "/></g><g stroke-linecap="butt" fill="rgb(0,0,0)" stroke-miterlimit="10.0" stroke-width="0.9999999999999997" fill-opacity="0.0" stroke-opacity="1.0" stroke-linejoin="miter" stroke="rgb(0,0,0)"><path d="M 29.8004,60.8571 h 2.0000 "/></g><g stroke-linecap="butt" fill="rgb(0,0,0)" stroke-miterlimit="10.0" stroke-width="0.9999999999999997" fill-opacity="0.0" stroke-opacity="1.0" stroke-linejoin="miter" stroke="rgb(0,0,0)"><path d="M 29.8004,45.5714 h 2.0000 "/></g><g stroke-linecap="butt" fill="rgb(0,0,0)" stroke-miterlimit="10.0" stroke-width="0.9999999999999997" fill-opacity="0.0" stroke-opacity="1.0" stroke-linejoin="miter" stroke="rgb(0,0,0)"><path d="M 29.8004,30.2857 h 2.0000 "/></g><g stroke-linecap="butt" fill="rgb(0,0,0)" stroke-miterlimit="10.0" stroke-width="0.9999999999999997" fill-opacity="0.0" stroke-opacity="1.0" stroke-linejoin="miter" stroke="rgb(0,0,0)"><path d="M 29.8004,15.0000 h 2.0000 "/></g><g stroke-linecap="butt" fill="rgb(0,0,0)" stroke-miterlimit="10.0" stroke-width="0.9999999999999997" fill-opacity="0.0" stroke-opacity="1.0" stroke-linejoin="miter" stroke="rgb(0,0,0)"><path d="M 29.8004,550.0000 h 5.0000 "/></g><g stroke-linecap="butt" fill="rgb(0,0,0)" stroke-miterlimit="10.0" stroke-width="0.9999999999999997" fill-opacity="0.0" stroke-opacity="1.0" stroke-linejoin="miter" stroke="rgb(0,0,0)"><path d="M 29.8004,473.5714 h 5.0000 "/></g><g stroke-linecap="butt" fill="rgb(0,0,0)" stroke-miterlimit="10.0" stroke-width="0.9999999999999997" fill-opacity="0.0" stroke-opacity="1.0" stroke-linejoin="miter" stroke="rgb(0,0,0)"><path d="M 29.8004,397.1429 h 5.0000 "/></g><g stroke-linecap="butt" fill="rgb(0,0,0)" stroke-miterlimit="10.0" stroke-width="0.9999999999999997" fill-opacity="0.0" stroke-opacity="1.0" stroke-linejoin="miter" stroke="rgb(0,0,0)"><path d="M 29.8004,320.7143 h 5.0000 "/></g><g stroke-linecap="butt" fill="rgb(0,0,0)" stroke-miterlimit="10.0" stroke-width="0.9999999999999997" fill-opacity="0.0" stroke-opacity="1.0" stroke-linejoin="miter" stroke="rgb(0,0,0)"><path d="M 29.8004,244.2857 h 5.0000 "/></g><g stroke-linecap="butt" fill="rgb(0,0,0)" stroke-miterlimit="10.0" stroke-width="0.9999999999999997" fill-opacity="0.0" stroke-opacity="1.0" stroke-linejoin="miter" stroke="rgb(0,0,0)"><path d="M 29.8004,167.8571 h 5.0000 "/></g><g stroke-linecap="butt" fill="rgb(0,0,0)" stroke-miterlimit="10.0" stroke-width="0.9999999999999997" fill-opacity="0.0" stroke-opacity="1.0" stroke-linejoin="miter" stroke="rgb(0,0,0)"><path d="M 29.8004,91.4286 h 5.0000 "/></g><g stroke-linecap="butt" fill="rgb(0,0,0)" stroke-miterlimit="10.0" stroke-width="0.9999999999999997" fill-opacity="0.0" stroke-opacity="1.0" stroke-linejoin="miter" stroke="rgb(0,0,0)"><path d="M 29.8004,15.0000 h 5.0000 "/></g><g stroke-linecap="butt" fill="rgb(0,0,0)" stroke-miterlimit="10.0" stroke-width="0.0" fill-opacity="1.0" stroke-opacity="0.0" stroke-linejoin="bevel" stroke="rgb(0,0,0)"><path d="M 15.5042,553.4454 ZM 18.1197,553.5714 c -1.0189,-0.0000 -1.5861,-0.9034 -1.5861 -0.9034c -0.5672,-0.9034 -0.5672,-2.5945 -0.5672 -2.5945c 0.0000,-1.6912 0.5672,-2.5735 0.5672 -2.5735c 0.5672,-0.8824 1.5861,-0.8824 1.5861 -0.8824c 1.0084,0.0000 1.5756,0.8824 1.5756 0.8824c 0.5672,0.8824 0.5672,2.5735 0.5672 2.5735c 0.0000,1.6912 -0.5672,2.5945 -0.5672 2.5945c -0.5672,0.9034 -1.5756,0.9034 -1.5756 0.9034ZM 18.1197,553.5714 ZM 18.1197,552.8782 c 0.2941,0.0000 0.5305,-0.1628 0.5305 -0.1628c 0.2363,-0.1628 0.4097,-0.5042 0.4097 -0.5042c 0.1733,-0.3414 0.2679,-0.8718 0.2679 -0.8718c 0.0945,-0.5305 0.0945,-1.2658 0.0945 -1.2658c 0.0000,-0.7353 -0.0945,-1.2605 -0.0945 -1.2605c -0.0945,-0.5252 -0.2679,-0.8561 -0.2679 -0.8561c -0.1733,-0.3309 -0.4097,-0.4884 -0.4097 -0.4884c -0.2363,-0.1576 -0.5305,-0.1576 -0.5305 -0.1576c -0.2941,-0.0000 -0.5357,0.1576 -0.5357 0.1576c -0.2416,0.1576 -0.4149,0.4884 -0.4149 0.4884c -0.1733,0.3309 -0.2679,0.8561 -0.2679 0.8561c -0.0945,0.5252 -0.0945,1.2605 -0.0945 1.2605c 0.0000,1.4706 0.3624,2.1376 0.3624 2.1376c 0.3624,0.6670 0.9506,0.6670 0.9506 0.6670Z"/></g><g stroke-linecap="butt" fill="rgb(0,0,0)" stroke-miterlimit="10.0" stroke-width="0.0" fill-opacity="1.0" stroke-opacity="0.0" stroke-linejoin="bevel" stroke="rgb(0,0,0)"><path d="M 10.6513,477.0168 ZM 11.4811,476.3025 h 1.5336 v -4.9370 h -1.2185 v -0.5567 c 0.4622,-0.0840 0.8036,-0.2048 0.8036 -0.2048c 0.3414,-0.1208 0.6145,-0.2889 0.6145 -0.2889h 0.6618 v 5.9874 h 1.3866 v 0.7143 h -3.7815 v -0.7143 ZM 15.8718,477.0168 ZM 18.4874,477.1429 c -1.0189,-0.0000 -1.5861,-0.9034 -1.5861 -0.9034c -0.5672,-0.9034 -0.5672,-2.5945 -0.5672 -2.5945c 0.0000,-1.6912 0.5672,-2.5735 0.5672 -2.5735c 0.5672,-0.8824 1.5861,-0.8824 1.5861 -0.8824c 1.0084,0.0000 1.5756,0.8824 1.5756 0.8824c 0.5672,0.8824 0.5672,2.5735 0.5672 2.5735c 0.0000,1.6912 -0.5672,2.5945 -0.5672 2.5945c -0.5672,0.9034 -1.5756,0.9034 -1.5756 0.9034ZM 18.4874,477.1429 ZM 18.4874,476.4496 c 0.2941,0.0000 0.5305,-0.1628 0.5305 -0.1628c 0.2363,-0.1628 0.4097,-0.5042 0.4097 -0.5042c 0.1733,-0.3414 0.2679,-0.8718 0.2679 -0.8718c 0.0945,-0.5305 0.0945,-1.2658 0.0945 -1.2658c 0.0000,-0.7353 -0.0945,-1.2605 -0.0945 -1.2605c -0.0945,-0.5252 -0.2679,-0.8561 -0.2679 -0.8561c -0.1733,-0.3309 -0.4097,-0.4884 -0.4097 -0.4884c -0.2363,-0.1576 -0.5305,-0.1576 -0.5305 -0.1576c -0.2941,-0.0000 -0.5357,0.1576 -0.5357 0.1576c -0.2416,0.1576 -0.4149,0.4884 -0.4149 0.4884c -0.1733,0.3309 -0.2679,0.8561 -0.2679 0.8561c -0.0945,0.5252 -0.0945,1.2605 -0.0945 1.2605c 0.0000,1.4706 0.3624,2.1376 0.3624 2.1376c 0.3624,0.6670 0.9506,0.6670 0.9506 0.6670Z"/></g><g stroke-linecap="butt" fill="rgb(0,0,0)" stroke-miterlimit="10.0" stroke-width="0.0" fill-opacity="1.0" stroke-opacity="0.0" stroke-linejoin="bevel" stroke="rgb(0,0,0)"><path d="M 10.1996,400.5882 ZM 10.6197,400.0735 c 0.7563,-0.7563 1.3445,-1.3655 1.3445 -1.3655c 0.5882,-0.6092 0.9874,-1.1292 0.9874 -1.1292c 0.3992,-0.5200 0.6092,-0.9559 0.6092 -0.9559c 0.2101,-0.4359 0.2101,-0.8456 0.2101 -0.8456c 0.0000,-0.5777 -0.3151,-0.9454 -0.3151 -0.9454c -0.3151,-0.3676 -0.9559,-0.3676 -0.9559 -0.3676c -0.4202,-0.0000 -0.7773,0.2363 -0.7773 0.2363c -0.3571,0.2363 -0.6513,0.5725 -0.6513 0.5725l -0.4937,-0.4937 c 0.4202,-0.4622 0.8929,-0.7405 0.8929 -0.7405c 0.4727,-0.2784 1.1345,-0.2784 1.1345 -0.2784c 0.9349,0.0000 1.4706,0.5410 1.4706 0.5410c 0.5357,0.5410 0.5357,1.4338 0.5357 1.4338c 0.0000,0.4727 -0.2048,0.9506 -0.2048 0.9506c -0.2048,0.4779 -0.5672,0.9874 -0.5672 0.9874c -0.3624,0.5095 -0.8613,1.0609 -0.8613 1.0609c -0.4989,0.5515 -1.0977,1.1712 -1.0977 1.1712c 0.2731,-0.0210 0.5672,-0.0420 0.5672 -0.0420c 0.2941,-0.0210 0.5567,-0.0210 0.5567 -0.0210h 1.9433 v 0.7458 h -4.3277 v -0.5147 ZM 15.4202,400.5882 ZM 18.0357,400.7143 c -1.0189,-0.0000 -1.5861,-0.9034 -1.5861 -0.9034c -0.5672,-0.9034 -0.5672,-2.5945 -0.5672 -2.5945c 0.0000,-1.6912 0.5672,-2.5735 0.5672 -2.5735c 0.5672,-0.8824 1.5861,-0.8824 1.5861 -0.8824c 1.0084,0.0000 1.5756,0.8824 1.5756 0.8824c 0.5672,0.8824 0.5672,2.5735 0.5672 2.5735c 0.0000,1.6912 -0.5672,2.5945 -0.5672 2.5945c -0.5672,0.9034 -1.5756,0.9034 -1.5756 0.9034ZM 18.0357,400.7143 ZM 18.0357,400.0210 c 0.2941,0.0000 0.5305,-0.1628 0.5305 -0.1628c 0.2363,-0.1628 0.4097,-0.5042 0.4097 -0.5042c 0.1733,-0.3414 0.2679,-0.8718 0.2679 -0.8718c 0.0945,-0.5305 0.0945,-1.2658 0.0945 -1.2658c 0.0000,-0.7353 -0.0945,-1.2605 -0.0945 -1.2605c -0.0945,-0.5252 -0.2679,-0.8561 -0.2679 -0.8561c -0.1733,-0.3309 -0.4097,-0.4884 -0.4097 -0.4884c -0.2363,-0.1576 -0.5305,-0.1576 -0.5305 -0.1576c -0.2941,-0.0000 -0.5357,0.1576 -0.5357 0.1576c -0.2416,0.1576 -0.4149,0.4884 -0.4149 0.4884c -0.1733,0.3309 -0.2679,0.8561 -0.2679 0.8561c -0.0945,0.5252 -0.0945,1.2605 -0.0945 1.2605c 0.0000,1.4706 0.3624,2.1376 0.3624 2.1376c 0.3624,0.6670 0.9506,0.6670 0.9506 0.6670Z"/></g><g stroke-linecap="butt" fill="rgb(0,0,0)" stroke-miterlimit="10.0" stroke-width="0.0" fill-opacity="1.0" stroke-opacity="0.0" stroke-linejoin="bevel" stroke="rgb(0,0,0)"><path d="M 10.0945,324.1597 ZM 10.8088,322.7731 c 0.3046,0.3151 0.7090,0.5567 0.7090 0.5567c 0.4044,0.2416 1.0032,0.2416 1.0032 0.2416c 0.6092,0.0000 0.9979,-0.3309 0.9979 -0.3309c 0.3887,-0.3309 0.3887,-0.8981 0.3887 -0.8981c 0.0000,-0.2941 -0.1103,-0.5410 -0.1103 -0.5410c -0.1103,-0.2468 -0.3624,-0.4254 -0.3624 -0.4254c -0.2521,-0.1786 -0.6618,-0.2731 -0.6618 -0.2731c -0.4097,-0.0945 -1.0084,-0.0945 -1.0084 -0.0945v -0.6618 c 0.5357,0.0000 0.8981,-0.0945 0.8981 -0.0945c 0.3624,-0.0945 0.5882,-0.2626 0.5882 -0.2626c 0.2258,-0.1681 0.3204,-0.3992 0.3204 -0.3992c 0.0945,-0.2311 0.0945,-0.4937 0.0945 -0.4937c 0.0000,-0.4937 -0.3099,-0.7773 -0.3099 -0.7773c -0.3099,-0.2836 -0.8456,-0.2836 -0.8456 -0.2836c -0.4202,-0.0000 -0.7721,0.1891 -0.7721 0.1891c -0.3519,0.1891 -0.6565,0.4937 -0.6565 0.4937l -0.4622,-0.5462 c 0.3887,-0.3676 0.8561,-0.6040 0.8561 -0.6040c 0.4674,-0.2363 1.0662,-0.2363 1.0662 -0.2363c 0.4412,0.0000 0.8088,0.1155 0.8088 0.1155c 0.3676,0.1155 0.6355,0.3309 0.6355 0.3309c 0.2679,0.2153 0.4149,0.5305 0.4149 0.5305c 0.1471,0.3151 0.1471,0.7248 0.1471 0.7248c 0.0000,0.6092 -0.3361,0.9979 -0.3361 0.9979c -0.3361,0.3887 -0.8824,0.5987 -0.8824 0.5987v 0.0420 c 0.3046,0.0735 0.5672,0.2153 0.5672 0.2153c 0.2626,0.1418 0.4622,0.3571 0.4622 0.3571c 0.1996,0.2153 0.3099,0.4989 0.3099 0.4989c 0.1103,0.2836 0.1103,0.6303 0.1103 0.6303c 0.0000,0.4412 -0.1733,0.7983 -0.1733 0.7983c -0.1733,0.3571 -0.4727,0.6040 -0.4727 0.6040c -0.2994,0.2468 -0.6985,0.3782 -0.6985 0.3782c -0.3992,0.1313 -0.8613,0.1313 -0.8613 0.1313c -0.3992,-0.0000 -0.7300,-0.0788 -0.7300 -0.0788c -0.3309,-0.0788 -0.6040,-0.2101 -0.6040 -0.2101c -0.2731,-0.1313 -0.4884,-0.2994 -0.4884 -0.2994c -0.2153,-0.1681 -0.3834,-0.3571 -0.3834 -0.3571ZM 15.3151,324.1597 ZM 17.9307,324.2857 c -1.0189,-0.0000 -1.5861,-0.9034 -1.5861 -0.9034c -0.5672,-0.9034 -0.5672,-2.5945 -0.5672 -2.5945c 0.0000,-1.6912 0.5672,-2.5735 0.5672 -2.5735c 0.5672,-0.8824 1.5861,-0.8824 1.5861 -0.8824c 1.0084,0.0000 1.5756,0.8824 1.5756 0.8824c 0.5672,0.8824 0.5672,2.5735 0.5672 2.5735c 0.0000,1.6912 -0.5672,2.5945 -0.5672 2.5945c -0.5672,0.9034 -1.5756,0.9034 -1.5756 0.9034ZM 17.9307,324.2857 ZM 17.9307,323.5924 c 0.2941,0.0000 0.5305,-0.1628 0.5305 -0.1628c 0.2363,-0.1628 0.4097,-0.5042 0.4097 -0.5042c 0.1733,-0.3414 0.2679,-0.8718 0.2679 -0.8718c 0.0945,-0.5305 0.0945,-1.2658 0.0945 -1.2658c 0.0000,-0.7353 -0.0945,-1.2605 -0.0945 -1.2605c -0.0945,-0.5252 -0.2679,-0.8561 -0.2679 -0.8561c -0.1733,-0.3309 -0.4097,-0.4884 -0.4097 -0.4884c -0.2363,-0.1576 -0.5305,-0.1576 -0.5305 -0.1576c -0.2941,-0.0000 -0.5357,0.1576 -0.5357 0.1576c -0.2416,0.1576 -0.4149,0.4884 -0.4149 0.4884c -0.1733,0.3309 -0.2679,0.8561 -0.2679 0.8561c -0.0945,0.5252 -0.0945,1.2605 -0.0945 1.2605c 0.0000,1.4706 0.3624,2.1376 0.3624 2.1376c 0.3624,0.6670 0.9506,0.6670 0.9506 0.6670Z"/></g><g stroke-linecap="butt" fill="rgb(0,0,0)" stroke-miterlimit="10.0" stroke-width="0.0" fill-opacity="1.0" stroke-opacity="0.0" stroke-linejoin="bevel" stroke="rgb(0,0,0)"><path d="M 10.0000,247.7311 ZM 13.1933,245.1891 v -1.9433 c 0.0000,-0.2731 0.0158,-0.6460 0.0158 -0.6460c 0.0158,-0.3729 0.0368,-0.6460 0.0368 -0.6460h -0.0420 c -0.1261,0.2416 -0.2626,0.4727 -0.2626 0.4727c -0.1366,0.2311 -0.2836,0.4727 -0.2836 0.4727l -1.5651,2.2899 h 2.1008 ZM 13.1933,245.1891 ZM 14.9265,245.8824 h -0.9139 v 1.8487 h -0.8193 v -1.8487 h -3.0147 v -0.5672 l 2.8676,-4.2857 h 0.9664 v 4.1597 h 0.9139 v 0.6933 ZM 15.2206,247.7311 ZM 17.8361,247.8571 c -1.0189,-0.0000 -1.5861,-0.9034 -1.5861 -0.9034c -0.5672,-0.9034 -0.5672,-2.5945 -0.5672 -2.5945c 0.0000,-1.6912 0.5672,-2.5735 0.5672 -2.5735c 0.5672,-0.8824 1.5861,-0.8824 1.5861 -0.8824c 1.0084,0.0000 1.5756,0.8824 1.5756 0.8824c 0.5672,0.8824 0.5672,2.5735 0.5672 2.5735c 0.0000,1.6912 -0.5672,2.5945 -0.5672 2.5945c -0.5672,0.9034 -1.5756,0.9034 -1.5756 0.9034ZM 17.8361,247.8571 ZM 17.8361,247.1639 c 0.2941,0.0000 0.5305,-0.1628 0.5305 -0.1628c 0.2363,-0.1628 0.4097,-0.5042 0.4097 -0.5042c 0.1733,-0.3414 0.2679,-0.8718 0.2679 -0.8718c 0.0945,-0.5305 0.0945,-1.2658 0.0945 -1.2658c 0.0000,-0.7353 -0.0945,-1.2605 -0.0945 -1.2605c -0.0945,-0.5252 -0.2679,-0.8561 -0.2679 -0.8561c -0.1733,-0.3309 -0.4097,-0.4884 -0.4097 -0.4884c -0.2363,-0.1576 -0.5305,-0.1576 -0.5305 -0.1576c -0.2941,-0.0000 -0.5357,0.1576 -0.5357 0.1576c -0.2416,0.1576 -0.4149,0.4884 -0.4149 0.4884c -0.1733,0.3309 -0.2679,0.8561 -0.2679 0.8561c -0.0945,0.5252 -0.0945,1.2605 -0.0945 1.2605c 0.0000,1.4706 0.3624,2.1376 0.3624 2.1376c 0.3624,0.6670 0.9506,0.6670 0.9506 0.6670Z"/></g><g stroke-linecap="butt" fill="rgb(0,0,0)" stroke-miterlimit="10.0" stroke-width="0.0" fill-opacity="1.0" stroke-opacity="0.0" stroke-linejoin="bevel" stroke="rgb(0,0,0)"><path d="M 10.0840,171.3025 ZM 10.7668,169.9475 c 0.2941,0.3046 0.6985,0.5357 0.6985 0.5357c 0.4044,0.2311 0.9926,0.2311 0.9926 0.2311c 0.3046,0.0000 0.5725,-0.1103 0.5725 -0.1103c 0.2679,-0.1103 0.4674,-0.3099 0.4674 -0.3099c 0.1996,-0.1996 0.3151,-0.4832 0.3151 -0.4832c 0.1155,-0.2836 0.1155,-0.6303 0.1155 -0.6303c 0.0000,-0.6933 -0.3887,-1.0819 -0.3887 -1.0819c -0.3887,-0.3887 -1.0399,-0.3887 -1.0399 -0.3887c -0.3466,-0.0000 -0.5935,0.1050 -0.5935 0.1050c -0.2468,0.1050 -0.5515,0.3046 -0.5515 0.3046l -0.4622,-0.2941 l 0.2206,-3.2248 h 3.3508 v 0.7458 h -2.5945 l -0.1786,1.9853 c 0.2416,-0.1261 0.4832,-0.1996 0.4832 -0.1996c 0.2416,-0.0735 0.5462,-0.0735 0.5462 -0.0735c 0.4307,0.0000 0.8088,0.1261 0.8088 0.1261c 0.3782,0.1261 0.6618,0.3834 0.6618 0.3834c 0.2836,0.2574 0.4464,0.6513 0.4464 0.6513c 0.1628,0.3939 0.1628,0.9401 0.1628 0.9401c 0.0000,0.5462 -0.1891,0.9664 -0.1891 0.9664c -0.1891,0.4202 -0.5042,0.7090 -0.5042 0.7090c -0.3151,0.2889 -0.7195,0.4412 -0.7195 0.4412c -0.4044,0.1523 -0.8456,0.1523 -0.8456 0.1523c -0.3992,-0.0000 -0.7300,-0.0788 -0.7300 -0.0788c -0.3309,-0.0788 -0.5987,-0.2048 -0.5987 -0.2048c -0.2679,-0.1261 -0.4832,-0.2889 -0.4832 -0.2889c -0.2153,-0.1628 -0.3834,-0.3414 -0.3834 -0.3414ZM 15.3046,171.3025 ZM 17.9202,171.4286 c -1.0189,-0.0000 -1.5861,-0.9034 -1.5861 -0.9034c -0.5672,-0.9034 -0.5672,-2.5945 -0.5672 -2.5945c 0.0000,-1.6912 0.5672,-2.5735 0.5672 -2.5735c 0.5672,-0.8824 1.5861,-0.8824 1.5861 -0.8824c 1.0084,0.0000 1.5756,0.8824 1.5756 0.8824c 0.5672,0.8824 0.5672,2.5735 0.5672 2.5735c 0.0000,1.6912 -0.5672,2.5945 -0.5672 2.5945c -0.5672,0.9034 -1.5756,0.9034 -1.5756 0.9034ZM 17.9202,171.4286 ZM 17.9202,170.7353 c 0.2941,0.0000 0.5305,-0.1628 0.5305 -0.1628c 0.2363,-0.1628 0.4097,-0.5042 0.4097 -0.5042c 0.1733,-0.3414 0.2679,-0.8718 0.2679 -0.8718c 0.0945,-0.5305 0.0945,-1.2658 0.0945 -1.2658c 0.0000,-0.7353 -0.0945,-1.2605 -0.0945 -1.2605c -0.0945,-0.5252 -0.2679,-0.8561 -0.2679 -0.8561c -0.1733,-0.3309 -0.4097,-0.4884 -0.4097 -0.4884c -0.2363,-0.1576 -0.5305,-0.1576 -0.5305 -0.1576c -0.2941,-0.0000 -0.5357,0.1576 -0.5357 0.1576c -0.2416,0.1576 -0.4149,0.4884 -0.4149 0.4884c -0.1733,0.3309 -0.2679,0.8561 -0.2679 0.8561c -0.0945,0.5252 -0.0945,1.2605 -0.0945 1.2605c 0.0000,1.4706 0.3624,2.1376 0.3624 2.1376c 0.3624,0.6670 0.9506,0.6670 0.9506 0.6670Z"/></g><g stroke-linecap="butt" fill="rgb(0,0,0)" stroke-miterlimit="10.0" stroke-width="0.0" fill-opacity="1.0" stroke-opacity="0.0" stroke-linejoin="bevel" stroke="rgb(0,0,0)"><path d="M 10.3256,94.8739 ZM 13.1408,94.3172 c 0.2521,0.0000 0.4622,-0.1050 0.4622 -0.1050c 0.2101,-0.1050 0.3676,-0.2994 0.3676 -0.2994c 0.1576,-0.1943 0.2468,-0.4622 0.2468 -0.4622c 0.0893,-0.2679 0.0893,-0.6040 0.0893 -0.6040c 0.0000,-0.6618 -0.3046,-1.0399 -0.3046 -1.0399c -0.3046,-0.3782 -0.9349,-0.3782 -0.9349 -0.3782c -0.3151,-0.0000 -0.6880,0.2048 -0.6880 0.2048c -0.3729,0.2048 -0.7090,0.6775 -0.7090 0.6775c 0.0840,0.9874 0.4569,1.4968 0.4569 1.4968c 0.3729,0.5095 1.0137,0.5095 1.0137 0.5095ZM 13.1408,94.3172 ZM 14.5168,89.2962 c -0.2101,-0.2416 -0.4989,-0.3834 -0.4989 -0.3834c -0.2889,-0.1418 -0.6040,-0.1418 -0.6040 -0.1418c -0.3466,-0.0000 -0.6618,0.1471 -0.6618 0.1471c -0.3151,0.1471 -0.5567,0.4832 -0.5567 0.4832c -0.2416,0.3361 -0.3887,0.8771 -0.3887 0.8771c -0.1471,0.5410 -0.1576,1.3393 -0.1576 1.3393c 0.3151,-0.3887 0.7353,-0.6145 0.7353 -0.6145c 0.4202,-0.2258 0.8298,-0.2258 0.8298 -0.2258c 0.8718,0.0000 1.3918,0.5147 1.3918 0.5147c 0.5200,0.5147 0.5200,1.5546 0.5200 1.5546c 0.0000,0.4832 -0.1576,0.8771 -0.1576 0.8771c -0.1576,0.3939 -0.4307,0.6775 -0.4307 0.6775c -0.2731,0.2836 -0.6303,0.4412 -0.6303 0.4412c -0.3571,0.1576 -0.7668,0.1576 -0.7668 0.1576c -0.4937,-0.0000 -0.9139,-0.1996 -0.9139 -0.1996c -0.4202,-0.1996 -0.7300,-0.6040 -0.7300 -0.6040c -0.3099,-0.4044 -0.4884,-1.0084 -0.4884 -1.0084c -0.1786,-0.6040 -0.1786,-1.4128 -0.1786 -1.4128c 0.0000,-1.0084 0.2101,-1.7174 0.2101 -1.7174c 0.2101,-0.7090 0.5672,-1.1555 0.5672 -1.1555c 0.3571,-0.4464 0.8141,-0.6513 0.8141 -0.6513c 0.4569,-0.2048 0.9611,-0.2048 0.9611 -0.2048c 0.5462,0.0000 0.9401,0.2048 0.9401 0.2048c 0.3939,0.2048 0.6775,0.5095 0.6775 0.5095ZM 15.5462,94.8739 ZM 18.1618,95.0000 c -1.0189,-0.0000 -1.5861,-0.9034 -1.5861 -0.9034c -0.5672,-0.9034 -0.5672,-2.5945 -0.5672 -2.5945c 0.0000,-1.6912 0.5672,-2.5735 0.5672 -2.5735c 0.5672,-0.8824 1.5861,-0.8824 1.5861 -0.8824c 1.0084,0.0000 1.5756,0.8824 1.5756 0.8824c 0.5672,0.8824 0.5672,2.5735 0.5672 2.5735c 0.0000,1.6912 -0.5672,2.5945 -0.5672 2.5945c -0.5672,0.9034 -1.5756,0.9034 -1.5756 0.9034ZM 18.1618,95.0000 ZM 18.1618,94.3067 c 0.2941,0.0000 0.5305,-0.1628 0.5305 -0.1628c 0.2363,-0.1628 0.4097,-0.5042 0.4097 -0.5042c 0.1733,-0.3414 0.2679,-0.8718 0.2679 -0.8718c 0.0945,-0.5305 0.0945,-1.2658 0.0945 -1.2658c 0.0000,-0.7353 -0.0945,-1.2605 -0.0945 -1.2605c -0.0945,-0.5252 -0.2679,-0.8561 -0.2679 -0.8561c -0.1733,-0.3309 -0.4097,-0.4884 -0.4097 -0.4884c -0.2363,-0.1576 -0.5305,-0.1576 -0.5305 -0.1576c -0.2941,-0.0000 -0.5357,0.1576 -0.5357 0.1576c -0.2416,0.1576 -0.4149,0.4884 -0.4149 0.4884c -0.1733,0.3309 -0.2679,0.8561 -0.2679 0.8561c -0.0945,0.5252 -0.0945,1.2605 -0.0945 1.2605c 0.0000,1.4706 0.3624,2.1376 0.3624 2.1376c 0.3624,0.6670 0.9506,0.6670 0.9506 0.6670Z"/></g><g stroke-linecap="butt" fill="rgb(0,0,0)" stroke-miterlimit="10.0" stroke-width="0.0" fill-opacity="1.0" stroke-opacity="0.0" stroke-linejoin="bevel" stroke="rgb(0,0,0)"><path d="M 10.2836,18.4454 ZM 12.1429,18.4454 c 0.0420,-0.9454 0.1681,-1.7332 0.1681 -1.7332c 0.1261,-0.7878 0.3519,-1.4968 0.3519 -1.4968c 0.2258,-0.7090 0.5777,-1.3708 0.5777 -1.3708c 0.3519,-0.6618 0.8456,-1.3550 0.8456 -1.3550h -3.3403 v -0.7458 h 4.3172 v 0.5357 c -0.5987,0.7563 -0.9716,1.4496 -0.9716 1.4496c -0.3729,0.6933 -0.5935,1.4128 -0.5935 1.4128c -0.2206,0.7195 -0.3204,1.5231 -0.3204 1.5231c -0.0998,0.8036 -0.1418,1.7805 -0.1418 1.7805h -0.8929 h 0.0000 ZM 15.5042,18.4454 ZM 18.1197,18.5714 c -1.0189,-0.0000 -1.5861,-0.9034 -1.5861 -0.9034c -0.5672,-0.9034 -0.5672,-2.5945 -0.5672 -2.5945c 0.0000,-1.6912 0.5672,-2.5735 0.5672 -2.5735c 0.5672,-0.8824 1.5861,-0.8824 1.5861 -0.8824c 1.0084,0.0000 1.5756,0.8824 1.5756 0.8824c 0.5672,0.8824 0.5672,2.5735 0.5672 2.5735c 0.0000,1.6912 -0.5672,2.5945 -0.5672 2.5945c -0.5672,0.9034 -1.5756,0.9034 -1.5756 0.9034ZM 18.1197,18.5714 ZM 18.1197,17.8782 c 0.2941,0.0000 0.5305,-0.1628 0.5305 -0.1628c 0.2363,-0.1628 0.4097,-0.5042 0.4097 -0.5042c 0.1733,-0.3414 0.2679,-0.8718 0.2679 -0.8718c 0.0945,-0.5305 0.0945,-1.2658 0.0945 -1.2658c 0.0000,-0.7353 -0.0945,-1.2605 -0.0945 -1.2605c -0.0945,-0.5252 -0.2679,-0.8561 -0.2679 -0.8561c -0.1733,-0.3309 -0.4097,-0.4884 -0.4097 -0.4884c -0.2363,-0.1576 -0.5305,-0.1576 -0.5305 -0.1576c -0.2941,-0.0000 -0.5357,0.1576 -0.5357 0.1576c -0.2416,0.1576 -0.4149,0.4884 -0.4149 0.4884c -0.1733,0.3309 -0.2679,0.8561 -0.2679 0.8561c -0.0945,0.5252 -0.0945,1.2605 -0.0945 1.2605c 0.0000,1.4706 0.3624,2.1376 0.3624 2.1376c 0.3624,0.6670 0.9506,0.6670 0.9506 0.6670Z"/></g><g stroke-linecap="square" fill="rgb(0,0,0)" stroke-miterlimit="10.0" stroke-width="0.9999999999999997" fill-opacity="0.0" stroke-opacity="1.0" stroke-linejoin="miter" stroke="rgb(0,0,0)"><path d="M 29.8004,550.0000 h 758.0147 "/></g><g stroke-linecap="butt" fill="rgb(0,0,0)" stroke-miterlimit="10.0" stroke-width="0.9999999999999997" fill-opacity="0.0" stroke-opacity="1.0" stroke-linejoin="miter" stroke="rgb(0,0,0)"><path d="M 29.8004,550.0000 v -2.0000 "/></g><g stroke-linecap="butt" fill="rgb(0,0,0)" stroke-miterlimit="10.0" stroke-width="0.9999999999999997" fill-opacity="0.0" stroke-opacity="1.0" stroke-linejoin="miter" stroke="rgb(0,0,0)"><path d="M 48.7508,550.0000 v -2.0000 "/></g><g stroke-linecap="butt" fill="rgb(0,0,0)" stroke-miterlimit="10.0" stroke-width="0.9999999999999997" fill-opacity="0.0" stroke-opacity="1.0" stroke-linejoin="miter" stroke="rgb(0,0,0)"><path d="M 67.7012,550.0000 v -2.0000 "/></g><g stroke-linecap="butt" fill="rgb(0,0,0)" stroke-miterlimit="10.0" stroke-width="0.9999999999999997" fill-opacity="0.0" stroke-opacity="1.0" stroke-linejoin="miter" stroke="rgb(0,0,0)"><path d="M 86.6515,550.0000 v -2.0000 "/></g><g stroke-linecap="butt" fill="rgb(0,0,0)" stroke-miterlimit="10.0" stroke-width="0.9999999999999997" fill-opacity="0.0" stroke-opacity="1.0" stroke-linejoin="miter" stroke="rgb(0,0,0)"><path d="M 105.6019,550.0000 v -2.0000 "/></g><g stroke-linecap="butt" fill="rgb(0,0,0)" stroke-miterlimit="10.0" stroke-width="0.9999999999999997" fill-opacity="0.0" stroke-opacity="1.0" stroke-linejoin="miter" stroke="rgb(0,0,0)"><path d="M 124.5523,550.0000 v -2.0000 "/></g><g stroke-linecap="butt" fill="rgb(0,0,0)" stroke-miterlimit="10.0" stroke-width="0.9999999999999997" fill-opacity="0.0" stroke-opacity="1.0" stroke-linejoin="miter" stroke="rgb(0,0,0)"><path d="M 143.5026,550.0000 v -2.0000 "/></g><g stroke-linecap="butt" fill="rgb(0,0,0)" stroke-miterlimit="10.0" stroke-width="0.9999999999999997" fill-opacity="0.0" stroke-opacity="1.0" stroke-linejoin="miter" stroke="rgb(0,0,0)"><path d="M 162.4530,550.0000 v -2.0000 "/></g><g stroke-linecap="butt" fill="rgb(0,0,0)" stroke-miterlimit="10.0" stroke-width="0.9999999999999997" fill-opacity="0.0" stroke-opacity="1.0" stroke-linejoin="miter" stroke="rgb(0,0,0)"><path d="M 181.4034,550.0000 v -2.0000 "/></g><g stroke-linecap="butt" fill="rgb(0,0,0)" stroke-miterlimit="10.0" stroke-width="0.9999999999999997" fill-opacity="0.0" stroke-opacity="1.0" stroke-linejoin="miter" stroke="rgb(0,0,0)"><path d="M 200.3537,550.0000 v -2.0000 "/></g><g stroke-linecap="butt" fill="rgb(0,0,0)" stroke-miterlimit="10.0" stroke-width="0.9999999999999997" fill-opacity="0.0" stroke-opacity="1.0" stroke-linejoin="miter" stroke="rgb(0,0,0)"><path d="M 219.3041,550.0000 v -2.0000 "/></g><g stroke-linecap="butt" fill="rgb(0,0,0)" stroke-miterlimit="10.0" stroke-width="0.9999999999999997" fill-opacity="0.0" stroke-opacity="1.0" stroke-linejoin="miter" stroke="rgb(0,0,0)"><path d="M 238.2545,550.0000 v -2.0000 "/></g><g stroke-linecap="butt" fill="rgb(0,0,0)" stroke-miterlimit="10.0" stroke-width="0.9999999999999997" fill-opacity="0.0" stroke-opacity="1.0" stroke-linejoin="miter" stroke="rgb(0,0,0)"><path d="M 257.2048,550.0000 v -2.0000 "/></g><g stroke-linecap="butt" fill="rgb(0,0,0)" stroke-miterlimit="10.0" stroke-width="0.9999999999999997" fill-opacity="0.0" stroke-opacity="1.0" stroke-linejoin="miter" stroke="rgb(0,0,0)"><path d="M 276.1552,550.0000 v -2.0000 "/></g><g stroke-linecap="butt" fill="rgb(0,0,0)" stroke-miterlimit="10.0" stroke-width="0.9999999999999997" fill-opacity="0.0" stroke-opacity="1.0" stroke-linejoin="miter" stroke="rgb(0,0,0)"><path d="M 295.1056,550.0000 v -2.0000 "/></g><g stroke-linecap="butt" fill="rgb(0,0,0)" stroke-miterlimit="10.0" stroke-width="0.9999999999999997" fill-opacity="0.0" stroke-opacity="1.0" stroke-linejoin="miter" stroke="rgb(0,0,0)"><path d="M 314.0559,550.0000 v -2.0000 "/></g><g stroke-linecap="butt" fill="rgb(0,0,0)" stroke-miterlimit="10.0" stroke-width="0.9999999999999997" fill-opacity="0.0" stroke-opacity="1.0" stroke-linejoin="miter" stroke="rgb(0,0,0)"><path d="M 333.0063,550.0000 v -2.0000 "/></g><g stroke-linecap="butt" fill="rgb(0,0,0)" stroke-miterlimit="10.0" stroke-width="0.9999999999999997" fill-opacity="0.0" stroke-opacity="1.0" stroke-linejoin="miter" stroke="rgb(0,0,0)"><path d="M 351.9567,550.0000 v -2.0000 "/></g><g stroke-linecap="butt" fill="rgb(0,0,0)" stroke-miterlimit="10.0" stroke-width="0.9999999999999997" fill-opacity="0.0" stroke-opacity="1.0" stroke-linejoin="miter" stroke="rgb(0,0,0)"><path d="M 370.9070,550.0000 v -2.0000 "/></g><g stroke-linecap="butt" fill="rgb(0,0,0)" stroke-miterlimit="10.0" stroke-width="0.9999999999999997" fill-opacity="0.0" stroke-opacity="1.0" stroke-linejoin="miter" stroke="rgb(0,0,0)"><path d="M 389.8574,550.0000 v -2.0000 "/></g><g stroke-linecap="butt" fill="rgb(0,0,0)" stroke-miterlimit="10.0" stroke-width="0.9999999999999997" fill-opacity="0.0" stroke-opacity="1.0" stroke-linejoin="miter" stroke="rgb(0,0,0)"><path d="M 408.8078,550.0000 v -2.0000 "/></g><g stroke-linecap="butt" fill="rgb(0,0,0)" stroke-miterlimit="10.0" stroke-width="0.9999999999999997" fill-opacity="0.0" stroke-opacity="1.0" stroke-linejoin="miter" stroke="rgb(0,0,0)"><path d="M 427.7581,550.0000 v -2.0000 "/></g><g stroke-linecap="butt" fill="rgb(0,0,0)" stroke-miterlimit="10.0" stroke-width="0.9999999999999997" fill-opacity="0.0" stroke-opacity="1.0" stroke-linejoin="miter" stroke="rgb(0,0,0)"><path d="M 446.7085,550.0000 v -2.0000 "/></g><g stroke-linecap="butt" fill="rgb(0,0,0)" stroke-miterlimit="10.0" stroke-width="0.9999999999999997" fill-opacity="0.0" stroke-opacity="1.0" stroke-linejoin="miter" stroke="rgb(0,0,0)"><path d="M 465.6589,550.0000 v -2.0000 "/></g><g stroke-linecap="butt" fill="rgb(0,0,0)" stroke-miterlimit="10.0" stroke-width="0.9999999999999997" fill-opacity="0.0" stroke-opacity="1.0" stroke-linejoin="miter" stroke="rgb(0,0,0)"><path d="M 484.6092,550.0000 v -2.0000 "/></g><g stroke-linecap="butt" fill="rgb(0,0,0)" stroke-miterlimit="10.0" stroke-width="0.9999999999999997" fill-opacity="0.0" stroke-opacity="1.0" stroke-linejoin="miter" stroke="rgb(0,0,0)"><path d="M 503.5596,550.0000 v -2.0000 "/></g><g stroke-linecap="butt" fill="rgb(0,0,0)" stroke-miterlimit="10.0" stroke-width="0.9999999999999997" fill-opacity="0.0" stroke-opacity="1.0" stroke-linejoin="miter" stroke="rgb(0,0,0)"><path d="M 522.5100,550.0000 v -2.0000 "/></g><g stroke-linecap="butt" fill="rgb(0,0,0)" stroke-miterlimit="10.0" stroke-width="0.9999999999999997" fill-opacity="0.0" stroke-opacity="1.0" stroke-linejoin="miter" stroke="rgb(0,0,0)"><path d="M 541.4603,550.0000 v -2.0000 "/></g><g stroke-linecap="butt" fill="rgb(0,0,0)" stroke-miterlimit="10.0" stroke-width="0.9999999999999997" fill-opacity="0.0" stroke-opacity="1.0" stroke-linejoin="miter" stroke="rgb(0,0,0)"><path d="M 560.4107,550.0000 v -2.0000 "/></g><g stroke-linecap="butt" fill="rgb(0,0,0)" stroke-miterlimit="10.0" stroke-width="0.9999999999999997" fill-opacity="0.0" stroke-opacity="1.0" stroke-linejoin="miter" stroke="rgb(0,0,0)"><path d="M 579.3611,550.0000 v -2.0000 "/></g><g stroke-linecap="butt" fill="rgb(0,0,0)" stroke-miterlimit="10.0" stroke-width="0.9999999999999997" fill-opacity="0.0" stroke-opacity="1.0" stroke-linejoin="miter" stroke="rgb(0,0,0)"><path d="M 598.3114,550.0000 v -2.0000 "/></g><g stroke-linecap="butt" fill="rgb(0,0,0)" stroke-miterlimit="10.0" stroke-width="0.9999999999999997" fill-opacity="0.0" stroke-opacity="1.0" stroke-linejoin="miter" stroke="rgb(0,0,0)"><path d="M 617.2618,550.0000 v -2.0000 "/></g><g stroke-linecap="butt" fill="rgb(0,0,0)" stroke-miterlimit="10.0" stroke-width="0.9999999999999997" fill-opacity="0.0" stroke-opacity="1.0" stroke-linejoin="miter" stroke="rgb(0,0,0)"><path d="M 636.2122,550.0000 v -2.0000 "/></g><g stroke-linecap="butt" fill="rgb(0,0,0)" stroke-miterlimit="10.0" stroke-width="0.9999999999999997" fill-opacity="0.0" stroke-opacity="1.0" stroke-linejoin="miter" stroke="rgb(0,0,0)"><path d="M 655.1626,550.0000 v -2.0000 "/></g><g stroke-linecap="butt" fill="rgb(0,0,0)" stroke-miterlimit="10.0" stroke-width="0.9999999999999997" fill-opacity="0.0" stroke-opacity="1.0" stroke-linejoin="miter" stroke="rgb(0,0,0)"><path d="M 674.1129,550.0000 v -2.0000 "/></g><g stroke-linecap="butt" fill="rgb(0,0,0)" stroke-miterlimit="10.0" stroke-width="0.9999999999999997" fill-opacity="0.0" stroke-opacity="1.0" stroke-linejoin="miter" stroke="rgb(0,0,0)"><path d="M 693.0633,550.0000 v -2.0000 "/></g><g stroke-linecap="butt" fill="rgb(0,0,0)" stroke-miterlimit="10.0" stroke-width="0.9999999999999997" fill-opacity="0.0" stroke-opacity="1.0" stroke-linejoin="miter" stroke="rgb(0,0,0)"><path d="M 712.0137,550.0000 v -2.0000 "/></g><g stroke-linecap="butt" fill="rgb(0,0,0)" stroke-miterlimit="10.0" stroke-width="0.9999999999999997" fill-opacity="0.0" stroke-opacity="1.0" stroke-linejoin="miter" stroke="rgb(0,0,0)"><path d="M 730.9640,550.0000 v -2.0000 "/></g><g stroke-linecap="butt" fill="rgb(0,0,0)" stroke-miterlimit="10.0" stroke-width="0.9999999999999997" fill-opacity="0.0" stroke-opacity="1.0" stroke-linejoin="miter" stroke="rgb(0,0,0)"><path d="M 749.9144,550.0000 v -2.0000 "/></g><g stroke-linecap="butt" fill="rgb(0,0,0)" stroke-miterlimit="10.0" stroke-width="0.9999999999999997" fill-opacity="0.0" stroke-opacity="1.0" stroke-linejoin="miter" stroke="rgb(0,0,0)"><path d="M 768.8648,550.0000 v -2.0000 "/></g><g stroke-linecap="butt" fill="rgb(0,0,0)" stroke-miterlimit="10.0" stroke-width="0.9999999999999997" fill-opacity="0.0" stroke-opacity="1.0" stroke-linejoin="miter" stroke="rgb(0,0,0)"><path d="M 787.8151,550.0000 v -2.0000 "/></g><g stroke-linecap="butt" fill="rgb(0,0,0)" stroke-miterlimit="10.0" stroke-width="0.9999999999999997" fill-opacity="0.0" stroke-opacity="1.0" stroke-linejoin="miter" stroke="rgb(0,0,0)"><path d="M 29.8004,550.0000 v -5.0000 "/></g><g stroke-linecap="butt" fill="rgb(0,0,0)" stroke-miterlimit="10.0" stroke-width="0.9999999999999997" fill-opacity="0.0" stroke-opacity="1.0" stroke-linejoin="miter" stroke="rgb(0,0,0)"><path d="M 219.3041,550.0000 v -5.0000 "/></g><g stroke-linecap="butt" fill="rgb(0,0,0)" stroke-miterlimit="10.0" stroke-width="0.9999999999999997" fill-opacity="0.0" stroke-opacity="1.0" stroke-linejoin="miter" stroke="rgb(0,0,0)"><path d="M 408.8078,550.0000 v -5.0000 "/></g><g stroke-linecap="butt" fill="rgb(0,0,0)" stroke-miterlimit="10.0" stroke-width="0.9999999999999997" fill-opacity="0.0" stroke-opacity="1.0" stroke-linejoin="miter" stroke="rgb(0,0,0)"><path d="M 598.3114,550.0000 v -5.0000 "/></g><g stroke-linecap="butt" fill="rgb(0,0,0)" stroke-miterlimit="10.0" stroke-width="0.9999999999999997" fill-opacity="0.0" stroke-opacity="1.0" stroke-linejoin="miter" stroke="rgb(0,0,0)"><path d="M 787.8151,550.0000 v -5.0000 "/></g><g stroke-linecap="butt" fill="rgb(0,0,0)" stroke-miterlimit="10.0" stroke-width="0.0" fill-opacity="1.0" stroke-opacity="0.0" stroke-linejoin="bevel" stroke="rgb(0,0,0)"><path d="M 27.6523,570.0000 ZM 30.2679,570.1261 c -1.0189,-0.0000 -1.5861,-0.9034 -1.5861 -0.9034c -0.5672,-0.9034 -0.5672,-2.5945 -0.5672 -2.5945c 0.0000,-1.6912 0.5672,-2.5735 0.5672 -2.5735c 0.5672,-0.8824 1.5861,-0.8824 1.5861 -0.8824c 1.0084,0.0000 1.5756,0.8824 1.5756 0.8824c 0.5672,0.8824 0.5672,2.5735 0.5672 2.5735c 0.0000,1.6912 -0.5672,2.5945 -0.5672 2.5945c -0.5672,0.9034 -1.5756,0.9034 -1.5756 0.9034ZM 30.2679,570.1261 ZM 30.2679,569.4328 c 0.2941,0.0000 0.5305,-0.1628 0.5305 -0.1628c 0.2363,-0.1628 0.4097,-0.5042 0.4097 -0.5042c 0.1733,-0.3414 0.2679,-0.8718 0.2679 -0.8718c 0.0945,-0.5305 0.0945,-1.2658 0.0945 -1.2658c 0.0000,-0.7353 -0.0945,-1.2605 -0.0945 -1.2605c -0.0945,-0.5252 -0.2679,-0.8561 -0.2679 -0.8561c -0.1733,-0.3309 -0.4097,-0.4884 -0.4097 -0.4884c -0.2363,-0.1576 -0.5305,-0.1576 -0.5305 -0.1576c -0.2941,-0.0000 -0.5357,0.1576 -0.5357 0.1576c -0.2416,0.1576 -0.4149,0.4884 -0.4149 0.4884c -0.1733,0.3309 -0.2679,0.8561 -0.2679 0.8561c -0.0945,0.5252 -0.0945,1.2605 -0.0945 1.2605c 0.0000,1.4706 0.3624,2.1376 0.3624 2.1376c 0.3624,0.6670 0.9506,0.6670 0.9506 0.6670Z"/></g><g stroke-linecap="butt" fill="rgb(0,0,0)" stroke-miterlimit="10.0" stroke-width="0.0" fill-opacity="1.0" stroke-opacity="0.0" stroke-linejoin="bevel" stroke="rgb(0,0,0)"><path d="M 213.2589,570.0000 ZM 215.8745,570.1261 c -1.0189,-0.0000 -1.5861,-0.9034 -1.5861 -0.9034c -0.5672,-0.9034 -0.5672,-2.5945 -0.5672 -2.5945c 0.0000,-1.6912 0.5672,-2.5735 0.5672 -2.5735c 0.5672,-0.8824 1.5861,-0.8824 1.5861 -0.8824c 1.0084,0.0000 1.5756,0.8824 1.5756 0.8824c 0.5672,0.8824 0.5672,2.5735 0.5672 2.5735c 0.0000,1.6912 -0.5672,2.5945 -0.5672 2.5945c -0.5672,0.9034 -1.5756,0.9034 -1.5756 0.9034ZM 215.8745,570.1261 ZM 215.8745,569.4328 c 0.2941,0.0000 0.5305,-0.1628 0.5305 -0.1628c 0.2363,-0.1628 0.4097,-0.5042 0.4097 -0.5042c 0.1733,-0.3414 0.2679,-0.8718 0.2679 -0.8718c 0.0945,-0.5305 0.0945,-1.2658 0.0945 -1.2658c 0.0000,-0.7353 -0.0945,-1.2605 -0.0945 -1.2605c -0.0945,-0.5252 -0.2679,-0.8561 -0.2679 -0.8561c -0.1733,-0.3309 -0.4097,-0.4884 -0.4097 -0.4884c -0.2363,-0.1576 -0.5305,-0.1576 -0.5305 -0.1576c -0.2941,-0.0000 -0.5357,0.1576 -0.5357 0.1576c -0.2416,0.1576 -0.4149,0.4884 -0.4149 0.4884c -0.1733,0.3309 -0.2679,0.8561 -0.2679 0.8561c -0.0945,0.5252 -0.0945,1.2605 -0.0945 1.2605c 0.0000,1.4706 0.3624,2.1376 0.3624 2.1376c 0.3624,0.6670 0.9506,0.6670 0.9506 0.6670ZM 218.4795,570.0000 ZM 219.1623,569.4748 c 0.0000,-0.3046 0.1838,-0.4884 0.1838 -0.4884c 0.1838,-0.1838 0.4464,-0.1838 0.4464 -0.1838c 0.2521,0.0000 0.4359,0.1838 0.4359 0.1838c 0.1838,0.1838 0.1838,0.4884 0.1838 0.4884c 0.0000,0.2836 -0.1838,0.4674 -0.1838 0.4674c -0.1838,0.1838 -0.4359,0.1838 -0.4359 0.1838c -0.2626,-0.0000 -0.4464,-0.1838 -0.4464 -0.1838c -0.1838,-0.1838 -0.1838,-0.4674 -0.1838 -0.4674ZM 221.0951,570.0000 ZM 221.7778,568.6450 c 0.2941,0.3046 0.6985,0.5357 0.6985 0.5357c 0.4044,0.2311 0.9926,0.2311 0.9926 0.2311c 0.3046,0.0000 0.5725,-0.1103 0.5725 -0.1103c 0.2679,-0.1103 0.4674,-0.3099 0.4674 -0.3099c 0.1996,-0.1996 0.3151,-0.4832 0.3151 -0.4832c 0.1155,-0.2836 0.1155,-0.6303 0.1155 -0.6303c 0.0000,-0.6933 -0.3887,-1.0819 -0.3887 -1.0819c -0.3887,-0.3887 -1.0399,-0.3887 -1.0399 -0.3887c -0.3466,-0.0000 -0.5935,0.1050 -0.5935 0.1050c -0.2468,0.1050 -0.5515,0.3046 -0.5515 0.3046l -0.4622,-0.2941 l 0.2206,-3.2248 h 3.3508 v 0.7458 h -2.5945 l -0.1786,1.9853 c 0.2416,-0.1261 0.4832,-0.1996 0.4832 -0.1996c 0.2416,-0.0735 0.5462,-0.0735 0.5462 -0.0735c 0.4307,0.0000 0.8088,0.1261 0.8088 0.1261c 0.3782,0.1261 0.6618,0.3834 0.6618 0.3834c 0.2836,0.2574 0.4464,0.6513 0.4464 0.6513c 0.1628,0.3939 0.1628,0.9401 0.1628 0.9401c 0.0000,0.5462 -0.1891,0.9664 -0.1891 0.9664c -0.1891,0.4202 -0.5042,0.7090 -0.5042 0.7090c -0.3151,0.2889 -0.7195,0.4412 -0.7195 0.4412c -0.4044,0.1523 -0.8456,0.1523 -0.8456 0.1523c -0.3992,-0.0000 -0.7300,-0.0788 -0.7300 -0.0788c -0.3309,-0.0788 -0.5987,-0.2048 -0.5987 -0.2048c -0.2679,-0.1261 -0.4832,-0.2889 -0.4832 -0.2889c -0.2153,-0.1628 -0.3834,-0.3414 -0.3834 -0.3414Z"/></g><g stroke-linecap="butt" fill="rgb(0,0,0)" stroke-miterlimit="10.0" stroke-width="0.0" fill-opacity="1.0" stroke-opacity="0.0" stroke-linejoin="bevel" stroke="rgb(0,0,0)"><path d="M 406.9170,570.0000 ZM 407.7468,569.2857 h 1.5336 v -4.9370 h -1.2185 v -0.5567 c 0.4622,-0.0840 0.8036,-0.2048 0.8036 -0.2048c 0.3414,-0.1208 0.6145,-0.2889 0.6145 -0.2889h 0.6618 v 5.9874 h 1.3866 v 0.7143 h -3.7815 v -0.7143 Z"/></g><g stroke-linecap="butt" fill="rgb(0,0,0)" stroke-miterlimit="10.0" stroke-width="0.0" fill-opacity="1.0" stroke-opacity="0.0" stroke-linejoin="bevel" stroke="rgb(0,0,0)"><path d="M 592.4501,570.0000 ZM 593.2799,569.2857 h 1.5336 v -4.9370 h -1.2185 v -0.5567 c 0.4622,-0.0840 0.8036,-0.2048 0.8036 -0.2048c 0.3414,-0.1208 0.6145,-0.2889 0.6145 -0.2889h 0.6618 v 5.9874 h 1.3866 v 0.7143 h -3.7815 v -0.7143 ZM 597.6707,570.0000 ZM 598.3535,569.4748 c 0.0000,-0.3046 0.1838,-0.4884 0.1838 -0.4884c 0.1838,-0.1838 0.4464,-0.1838 0.4464 -0.1838c 0.2521,0.0000 0.4359,0.1838 0.4359 0.1838c 0.1838,0.1838 0.1838,0.4884 0.1838 0.4884c 0.0000,0.2836 -0.1838,0.4674 -0.1838 0.4674c -0.1838,0.1838 -0.4359,0.1838 -0.4359 0.1838c -0.2626,-0.0000 -0.4464,-0.1838 -0.4464 -0.1838c -0.1838,-0.1838 -0.1838,-0.4674 -0.1838 -0.4674ZM 600.2862,570.0000 ZM 600.9690,568.6450 c 0.2941,0.3046 0.6985,0.5357 0.6985 0.5357c 0.4044,0.2311 0.9926,0.2311 0.9926 0.2311c 0.3046,0.0000 0.5725,-0.1103 0.5725 -0.1103c 0.2679,-0.1103 0.4674,-0.3099 0.4674 -0.3099c 0.1996,-0.1996 0.3151,-0.4832 0.3151 -0.4832c 0.1155,-0.2836 0.1155,-0.6303 0.1155 -0.6303c 0.0000,-0.6933 -0.3887,-1.0819 -0.3887 -1.0819c -0.3887,-0.3887 -1.0399,-0.3887 -1.0399 -0.3887c -0.3466,-0.0000 -0.5935,0.1050 -0.5935 0.1050c -0.2468,0.1050 -0.5515,0.3046 -0.5515 0.3046l -0.4622,-0.2941 l 0.2206,-3.2248 h 3.3508 v 0.7458 h -2.5945 l -0.1786,1.9853 c 0.2416,-0.1261 0.4832,-0.1996 0.4832 -0.1996c 0.2416,-0.0735 0.5462,-0.0735 0.5462 -0.0735c 0.4307,0.0000 0.8088,0.1261 0.8088 0.1261c 0.3782,0.1261 0.6618,0.3834 0.6618 0.3834c 0.2836,0.2574 0.4464,0.6513 0.4464 0.6513c 0.1628,0.3939 0.1628,0.9401 0.1628 0.9401c 0.0000,0.5462 -0.1891,0.9664 -0.1891 0.9664c -0.1891,0.4202 -0.5042,0.7090 -0.5042 0.7090c -0.3151,0.2889 -0.7195,0.4412 -0.7195 0.4412c -0.4044,0.1523 -0.8456,0.1523 -0.8456 0.1523c -0.3992,-0.0000 -0.7300,-0.0788 -0.7300 -0.0788c -0.3309,-0.0788 -0.5987,-0.2048 -0.5987 -0.2048c -0.2679,-0.1261 -0.4832,-0.2889 -0.4832 -0.2889c -0.2153,-0.1628 -0.3834,-0.3414 -0.3834 -0.3414Z"/></g><g stroke-linecap="butt" fill="rgb(0,0,0)" stroke-miterlimit="10.0" stroke-width="0.0" fill-opacity="1.0" stroke-opacity="0.0" stroke-linejoin="bevel" stroke="rgb(0,0,0)"><path d="M 785.6303,570.0000 ZM 786.0504,569.4853 c 0.7563,-0.7563 1.3445,-1.3655 1.3445 -1.3655c 0.5882,-0.6092 0.9874,-1.1292 0.9874 -1.1292c 0.3992,-0.5200 0.6092,-0.9559 0.6092 -0.9559c 0.2101,-0.4359 0.2101,-0.8456 0.2101 -0.8456c 0.0000,-0.5777 -0.3151,-0.9454 -0.3151 -0.9454c -0.3151,-0.3676 -0.9559,-0.3676 -0.9559 -0.3676c -0.4202,-0.0000 -0.7773,0.2363 -0.7773 0.2363c -0.3571,0.2363 -0.6513,0.5725 -0.6513 0.5725l -0.4937,-0.4937 c 0.4202,-0.4622 0.8929,-0.7405 0.8929 -0.7405c 0.4727,-0.2784 1.1345,-0.2784 1.1345 -0.2784c 0.9349,0.0000 1.4706,0.5410 1.4706 0.5410c 0.5357,0.5410 0.5357,1.4338 0.5357 1.4338c 0.0000,0.4727 -0.2048,0.9506 -0.2048 0.9506c -0.2048,0.4779 -0.5672,0.9874 -0.5672 0.9874c -0.3624,0.5095 -0.8613,1.0609 -0.8613 1.0609c -0.4989,0.5515 -1.0977,1.1712 -1.0977 1.1712c 0.2731,-0.0210 0.5672,-0.0420 0.5672 -0.0420c 0.2941,-0.0210 0.5567,-0.0210 0.5567 -0.0210h 1.9433 v 0.7458 h -4.3277 v -0.5147 Z"/></g><g stroke-linecap="round" fill="rgb(0,0,0)" stroke-miterlimit="10.0" stroke-width="0.9999999999999997" fill-opacity="0.0" stroke-opacity="1.0" stroke-linejoin="round" stroke="rgb(0,0,255)"><path d="M 10.0000,585.0000 h 20.0000 "/></g><g stroke-linecap="butt" fill="rgb(0,0,0)" stroke-miterlimit="10.0" stroke-width="0.0" fill-opacity="1.0" stroke-opacity="0.0" stroke-linejoin="bevel" stroke="rgb(0,0,0)"><path d="M 35.0735,586.6071 ZM 36.0399,585.1050 c 0.3676,0.3887 0.8666,0.6250 0.8666 0.6250c 0.4989,0.2363 1.0347,0.2363 1.0347 0.2363c 0.6828,0.0000 1.0609,-0.3099 1.0609 -0.3099c 0.3782,-0.3099 0.3782,-0.8141 0.3782 -0.8141c 0.0000,-0.2626 -0.0893,-0.4464 -0.0893 -0.4464c -0.0893,-0.1838 -0.2416,-0.3151 -0.2416 -0.3151c -0.1523,-0.1313 -0.3624,-0.2363 -0.3624 -0.2363c -0.2101,-0.1050 -0.4517,-0.2206 -0.4517 -0.2206l -0.9874,-0.4307 c -0.2416,-0.1050 -0.4937,-0.2521 -0.4937 -0.2521c -0.2521,-0.1471 -0.4517,-0.3571 -0.4517 -0.3571c -0.1996,-0.2101 -0.3256,-0.4989 -0.3256 -0.4989c -0.1261,-0.2889 -0.1261,-0.6670 -0.1261 -0.6670c 0.0000,-0.3887 0.1628,-0.7248 0.1628 -0.7248c 0.1628,-0.3361 0.4517,-0.5830 0.4517 -0.5830c 0.2889,-0.2468 0.6828,-0.3834 0.6828 -0.3834c 0.3939,-0.1366 0.8666,-0.1366 0.8666 -0.1366c 0.6197,0.0000 1.1450,0.2363 1.1450 0.2363c 0.5252,0.2363 0.8929,0.6145 0.8929 0.6145l -0.4727,0.5672 c -0.3151,-0.3046 -0.6985,-0.4779 -0.6985 -0.4779c -0.3834,-0.1733 -0.8666,-0.1733 -0.8666 -0.1733c -0.5777,-0.0000 -0.9296,0.2679 -0.9296 0.2679c -0.3519,0.2679 -0.3519,0.7405 -0.3519 0.7405c 0.0000,0.2521 0.0998,0.4254 0.0998 0.4254c 0.0998,0.1733 0.2679,0.3046 0.2679 0.3046c 0.1681,0.1313 0.3676,0.2311 0.3676 0.2311c 0.1996,0.0998 0.4097,0.1838 0.4097 0.1838l 0.9769,0.4202 c 0.2941,0.1261 0.5567,0.2889 0.5567 0.2889c 0.2626,0.1628 0.4517,0.3782 0.4517 0.3782c 0.1891,0.2153 0.2994,0.5042 0.2994 0.5042c 0.1103,0.2889 0.1103,0.6670 0.1103 0.6670c 0.0000,0.4097 -0.1628,0.7668 -0.1628 0.7668c -0.1628,0.3571 -0.4674,0.6250 -0.4674 0.6250c -0.3046,0.2679 -0.7353,0.4202 -0.7353 0.4202c -0.4307,0.1523 -0.9769,0.1523 -0.9769 0.1523c -0.7248,-0.0000 -1.3445,-0.2731 -1.3445 -0.2731c -0.6197,-0.2731 -1.0714,-0.7458 -1.0714 -0.7458ZM 40.6828,586.6071 ZM 41.1660,584.0651 c 0.0000,-0.6408 0.1943,-1.1397 0.1943 -1.1397c 0.1943,-0.4989 0.5200,-0.8456 0.5200 -0.8456c 0.3256,-0.3466 0.7511,-0.5252 0.7511 -0.5252c 0.4254,-0.1786 0.8981,-0.1786 0.8981 -0.1786c 0.4727,0.0000 0.8981,0.1786 0.8981 0.1786c 0.4254,0.1786 0.7511,0.5252 0.7511 0.5252c 0.3256,0.3466 0.5200,0.8456 0.5200 0.8456c 0.1943,0.4989 0.1943,1.1397 0.1943 1.1397c 0.0000,0.6303 -0.1943,1.1292 -0.1943 1.1292c -0.1943,0.4989 -0.5200,0.8403 -0.5200 0.8403c -0.3256,0.3414 -0.7511,0.5200 -0.7511 0.5200c -0.4254,0.1786 -0.8981,0.1786 -0.8981 0.1786c -0.4727,-0.0000 -0.8981,-0.1786 -0.8981 -0.1786c -0.4254,-0.1786 -0.7511,-0.5200 -0.7511 -0.5200c -0.3256,-0.3414 -0.5200,-0.8403 -0.5200 -0.8403c -0.1943,-0.4989 -0.1943,-1.1292 -0.1943 -1.1292ZM 41.1660,584.0651 ZM 42.0588,584.0651 c 0.0000,0.4412 0.1050,0.7983 0.1050 0.7983c 0.1050,0.3571 0.2994,0.6145 0.2994 0.6145c 0.1943,0.2574 0.4674,0.3992 0.4674 0.3992c 0.2731,0.1418 0.5987,0.1418 0.5987 0.1418c 0.3256,0.0000 0.5987,-0.1418 0.5987 -0.1418c 0.2731,-0.1418 0.4674,-0.3992 0.4674 -0.3992c 0.1943,-0.2574 0.2994,-0.6145 0.2994 -0.6145c 0.1050,-0.3571 0.1050,-0.7983 0.1050 -0.7983c 0.0000,-0.4412 -0.1050,-0.8036 -0.1050 -0.8036c -0.1050,-0.3624 -0.2994,-0.6250 -0.2994 -0.6250c -0.1943,-0.2626 -0.4674,-0.4044 -0.4674 -0.4044c -0.2731,-0.1418 -0.5987,-0.1418 -0.5987 -0.1418c -0.3256,-0.0000 -0.5987,0.1418 -0.5987 0.1418c -0.2731,0.1418 -0.4674,0.4044 -0.4674 0.4044c -0.1943,0.2626 -0.2994,0.6250 -0.2994 0.6250c -0.1050,0.3624 -0.1050,0.8036 -0.1050 0.8036ZM 46.3761,586.6071 ZM 47.2374,579.1282 h 0.8613 v 6.5126 c 0.0000,0.2101 0.0735,0.2941 0.0735 0.2941c 0.0735,0.0840 0.1681,0.0840 0.1681 0.0840h 0.0788 c 0.0000,0.0000 0.1103,-0.0210 0.1103 -0.0210l 0.1155,0.6513 c -0.0840,0.0420 -0.1996,0.0630 -0.1996 0.0630c -0.1155,0.0210 -0.2941,0.0210 -0.2941 0.0210c -0.4937,-0.0000 -0.7038,-0.2941 -0.7038 -0.2941c -0.2101,-0.2941 -0.2101,-0.8613 -0.2101 -0.8613v -6.4496 ZM 49.0546,586.6071 ZM 49.8424,581.5021 h 0.8718 v 3.1197 c 0.0000,0.7248 0.2258,1.0452 0.2258 1.0452c 0.2258,0.3204 0.7300,0.3204 0.7300 0.3204c 0.3992,0.0000 0.7038,-0.2048 0.7038 -0.2048c 0.3046,-0.2048 0.6723,-0.6565 0.6723 -0.6565v -3.6239 h 0.8613 v 5.1050 h -0.7143 l -0.0735,-0.7983 h -0.0315 c -0.3571,0.4202 -0.7511,0.6723 -0.7511 0.6723c -0.3939,0.2521 -0.9296,0.2521 -0.9296 0.2521c -0.8193,-0.0000 -1.1922,-0.5042 -1.1922 -0.5042c -0.3729,-0.5042 -0.3729,-1.4916 -0.3729 -1.4916v -3.2353 ZM 54.7689,586.6071 ZM 55.7773,582.2059 h -0.7563 v -0.6513 l 0.7983,-0.0525 l 0.1050,-1.4286 h 0.7248 v 1.4286 h 1.3761 v 0.7038 h -1.3761 v 2.8361 c 0.0000,0.4727 0.1733,0.7300 0.1733 0.7300c 0.1733,0.2574 0.6145,0.2574 0.6145 0.2574c 0.1366,0.0000 0.2941,-0.0420 0.2941 -0.0420c 0.1576,-0.0420 0.2836,-0.0945 0.2836 -0.0945l 0.1681,0.6513 c -0.2101,0.0735 -0.4569,0.1313 -0.4569 0.1313c -0.2468,0.0578 -0.4884,0.0578 -0.4884 0.0578c -0.4097,-0.0000 -0.6880,-0.1261 -0.6880 -0.1261c -0.2784,-0.1261 -0.4517,-0.3466 -0.4517 -0.3466c -0.1733,-0.2206 -0.2468,-0.5357 -0.2468 -0.5357c -0.0735,-0.3151 -0.0735,-0.6933 -0.0735 -0.6933v -2.8256 ZM 58.3193,586.6071 ZM 59.6218,580.4517 c -0.2521,-0.0000 -0.4254,-0.1576 -0.4254 -0.1576c -0.1733,-0.1576 -0.1733,-0.3992 -0.1733 -0.3992c 0.0000,-0.2521 0.1733,-0.4044 0.1733 -0.4044c 0.1733,-0.1523 0.4254,-0.1523 0.4254 -0.1523c 0.2521,0.0000 0.4254,0.1523 0.4254 0.1523c 0.1733,0.1523 0.1733,0.4044 0.1733 0.4044c 0.0000,0.2416 -0.1733,0.3992 -0.1733 0.3992c -0.1733,0.1576 -0.4254,0.1576 -0.4254 0.1576ZM 59.6218,580.4517 ZM 59.1807,581.5021 h 0.8613 v 5.1050 h -0.8613 v -5.1050 ZM 60.9034,586.6071 ZM 61.3866,584.0651 c 0.0000,-0.6408 0.1943,-1.1397 0.1943 -1.1397c 0.1943,-0.4989 0.5200,-0.8456 0.5200 -0.8456c 0.3256,-0.3466 0.7511,-0.5252 0.7511 -0.5252c 0.4254,-0.1786 0.8981,-0.1786 0.8981 -0.1786c 0.4727,0.0000 0.8981,0.1786 0.8981 0.1786c 0.4254,0.1786 0.7511,0.5252 0.7511 0.5252c 0.3256,0.3466 0.5200,0.8456 0.5200 0.8456c 0.1943,0.4989 0.1943,1.1397 0.1943 1.1397c 0.0000,0.6303 -0.1943,1.1292 -0.1943 1.1292c -0.1943,0.4989 -0.5200,0.8403 -0.5200 0.8403c -0.3256,0.3414 -0.7511,0.5200 -0.7511 0.5200c -0.4254,0.1786 -0.8981,0.1786 -0.8981 0.1786c -0.4727,-0.0000 -0.8981,-0.1786 -0.8981 -0.1786c -0.4254,-0.1786 -0.7511,-0.5200 -0.7511 -0.5200c -0.3256,-0.3414 -0.5200,-0.8403 -0.5200 -0.8403c -0.1943,-0.4989 -0.1943,-1.1292 -0.1943 -1.1292ZM 61.3866,584.0651 ZM 62.2794,584.0651 c 0.0000,0.4412 0.1050,0.7983 0.1050 0.7983c 0.1050,0.3571 0.2994,0.6145 0.2994 0.6145c 0.1943,0.2574 0.4674,0.3992 0.4674 0.3992c 0.2731,0.1418 0.5987,0.1418 0.5987 0.1418c 0.3256,0.0000 0.5987,-0.1418 0.5987 -0.1418c 0.2731,-0.1418 0.4674,-0.3992 0.4674 -0.3992c 0.1943,-0.2574 0.2994,-0.6145 0.2994 -0.6145c 0.1050,-0.3571 0.1050,-0.7983 0.1050 -0.7983c 0.0000,-0.4412 -0.1050,-0.8036 -0.1050 -0.8036c -0.1050,-0.3624 -0.2994,-0.6250 -0.2994 -0.6250c -0.1943,-0.2626 -0.4674,-0.4044 -0.4674 -0.4044c -0.2731,-0.1418 -0.5987,-0.1418 -0.5987 -0.1418c -0.3256,-0.0000 -0.5987,0.1418 -0.5987 0.1418c -0.2731,0.1418 -0.4674,0.4044 -0.4674 0.4044c -0.1943,0.2626 -0.2994,0.6250 -0.2994 0.6250c -0.1050,0.3624 -0.1050,0.8036 -0.1050 0.8036ZM 66.5966,586.6071 ZM 67.4580,581.5021 h 0.7143 l 0.0735,0.7353 h 0.0315 c 0.3676,-0.3676 0.7721,-0.6145 0.7721 -0.6145c 0.4044,-0.2468 0.9401,-0.2468 0.9401 -0.2468c 0.8088,0.0000 1.1817,0.5042 1.1817 0.5042c 0.3729,0.5042 0.3729,1.4916 0.3729 1.4916v 3.2353 h -0.8613 v -3.1197 c 0.0000,-0.7248 -0.2311,-1.0452 -0.2311 -1.0452c -0.2311,-0.3204 -0.7353,-0.3204 -0.7353 -0.3204c -0.3992,-0.0000 -0.7038,0.1996 -0.7038 0.1996c -0.3046,0.1996 -0.6933,0.5882 -0.6933 0.5882v 3.6975 h -0.8613 v -5.1050 Z"/></g></svg>